<?xml version="1.0" encoding="UTF-8" standalone="no"?>
<!-- Created with Inkscape (http://www.inkscape.org/) -->

<svg
   version="1.1"
   id="svg2"
   width="792.396"
   height="292.13333"
   viewBox="0 0 792.39599 292.13333"
   sodipodi:docname="Page 1.svg"
   inkscape:version="1.2.2 (b0a84865, 2022-12-01)"
   xmlns:inkscape="http://www.inkscape.org/namespaces/inkscape"
   xmlns:sodipodi="http://sodipodi.sourceforge.net/DTD/sodipodi-0.dtd"
   xmlns="http://www.w3.org/2000/svg"
   xmlns:svg="http://www.w3.org/2000/svg">
  <sodipodi:namedview
     id="namedview475"
     pagecolor="#ffffff"
     bordercolor="#000000"
     borderopacity="0.25"
     inkscape:showpageshadow="2"
     inkscape:pageopacity="0.0"
     inkscape:pagecheckerboard="0"
     inkscape:deskcolor="#d1d1d1"
     showgrid="false"
     inkscape:zoom="1.5724381"
     inkscape:cx="396.51799"
     inkscape:cy="146.58764"
     inkscape:window-width="1920"
     inkscape:window-height="1027"
     inkscape:window-x="0"
     inkscape:window-y="25"
     inkscape:window-maximized="1"
     inkscape:current-layer="svg2" />
  <defs
     id="defs6">
    <clipPath
       clipPathUnits="userSpaceOnUse"
       id="clipPath72">
      <path
         d="M 0,0 H 5943 V 2191 H 0 Z"
         id="path70" />
    </clipPath>
    <clipPath
       clipPathUnits="userSpaceOnUse"
       id="clipPath78">
      <path
         d="m 433.457,1121.56 c -131.664,0 -238.187,84.33 -238.187,210.07 0,127.23 106.523,207.12 238.187,207.12 130.191,0 238.188,-81.36 238.188,-207.12 0,-125.74 -107.997,-210.07 -238.188,-210.07 z m 1.488,893.57 c 97.645,0 179.008,-62.14 179.008,-156.82 0,-102.09 -81.363,-158.31 -179.008,-158.31 -97.644,0 -181.972,57.71 -181.972,158.31 0,94.68 84.328,156.82 181.972,156.82 z M 982.23,1559.46 c 0,236.72 184.92,429.04 430.51,429.04 180.87,0 329.16,-105.64 393.9,-256.65 h 214 c -72.56,259.22 -305.47,459.33 -607.9,459.33 -368.37,0 -633.189,-294.42 -633.189,-631.72 0,-2.12 0.133,-4.21 0.152,-6.33 -33.644,38.03 -76.14,69.21 -125.808,90.66 85.8,47.34 133.152,121.31 133.152,223.39 0,195.28 -159.777,324 -352.102,324 -193.816,0 -353.5778,-128.72 -353.5778,-324 0,-100.59 47.3318,-176.05 131.6638,-221.92 C 82.8438,1589.05 0,1464.78 0,1325.72 0,1087.54 196.758,927.762 433.457,927.762 c 218.949,0 390.731,124.698 425.453,322.608 92.129,-167.34 258.27,-290.651 465.31,-318.249 v 205.529 c -200.18,40.15 -341.99,214.53 -341.99,421.81 z"
         id="path76" />
    </clipPath>
    <linearGradient
       x1="0"
       y1="0"
       x2="1"
       y2="0"
       gradientUnits="userSpaceOnUse"
       gradientTransform="matrix(1780.99,1780.99,1780.99,-1780.99,-24.1815,738.68)"
       spreadMethod="pad"
       id="linearGradient86">
      <stop
         style="stop-opacity:1;stop-color:#646c73"
         offset="0"
         id="stop80" />
      <stop
         style="stop-opacity:1;stop-color:#cccfcf"
         offset="0.527676"
         id="stop82" />
      <stop
         style="stop-opacity:1;stop-color:#646c73"
         offset="1"
         id="stop84" />
    </linearGradient>
  </defs>
  <g
     id="g10"
     transform="matrix(1.3333333,0,0,-1.3333333,0,292.13333)">
    <g
       id="g12"
       transform="scale(0.1)">
      <path
         d="m 1707.58,46.8789 c -7.56,2.9414 -13.43,9.043 -16.36,17.5899 -3.17,-3.8985 -13.43,-16.1094 -34.68,-16.1094 -24.41,0 -39.56,12.4492 -39.56,35.8906 0,28.32 22.71,43.461 62.28,43.461 2.92,0 5.37,0 8.55,-0.242 v 8.062 c 0,14.41 -1.97,24.168 -19.06,24.168 -12.94,0 -27.59,-6.34 -37.6,-13.918 l -10.26,16.117 c 11.97,6.84 27.6,16.122 51.28,16.122 17.83,0 30.77,-6.598 35.41,-19.532 1.96,-5.379 2.44,-9.527 2.44,-21.5 0,-8.789 -0.97,-27.59 -0.97,-45.4099 0,-16.8593 0.49,-23.6875 10.01,-29.5586 z m -27.6,65.6911 c -16.84,0 -27.1,-3.172 -31.98,-8.781 -4.64,-5.3671 -6.36,-9.7773 -6.36,-17.8281 0,-13.4296 6.85,-21.25 19.3,-21.25 10.25,0 20.03,6.3477 25.64,16.1172 l 0.73,31.2499 c -3.42,0.254 -5.37,0.492 -7.33,0.492"
         style="fill:#636c73;fill-opacity:1;fill-rule:nonzero;stroke:none"
         id="path14" />
      <path
         d="m 1870.2,144.809 c -6.6,6.113 -13.69,9.769 -19.79,9.769 -14.65,0 -21.24,-12.699 -21.24,-42.008 0,-16.3591 2.2,-26.1286 6.35,-31.4997 3.42,-4.3906 9.03,-7.082 14.65,-7.082 7.57,0 14.4,3.1836 22.47,10.2617 l 1.95,1.7109 14.89,-19.789 c -4.89,-4.8711 -7.08,-6.5821 -11.47,-9.2735 -8.79,-5.1289 -18.56,-7.8086 -30.53,-7.8086 -34.43,0 -54.46,23.9297 -54.46,64.4692 0,28.812 11,47.863 25.64,57.871 8.31,5.609 20.52,9.269 31.01,9.269 8.32,0 17.35,-1.937 24.19,-5.609 4.63,-2.442 6.83,-4.149 12.21,-8.789 l -15.87,-21.492"
         style="fill:#636c73;fill-opacity:1;fill-rule:nonzero;stroke:none"
         id="path16" />
      <path
         d="m 1998.14,160.691 c 10.02,-11.73 14.41,-25.41 14.41,-45.679 0,-21.4925 -4.88,-36.1331 -15.64,-48.3518 -9.52,-10.75 -21.97,-17.3321 -41.26,-17.3321 -33.95,0 -56.17,25.3907 -56.17,64.7229 0,39.308 22.47,65.437 56.17,65.437 17.82,0 31.74,-6.109 42.49,-18.797 m -58.85,-18.082 c -2.2,-6.589 -3.43,-15.379 -3.43,-27.839 0,-14.411 1.47,-25.1489 4.16,-31.5005 2.92,-6.8281 10.25,-10.25 16.6,-10.25 14.17,0 20.27,12.6993 20.27,42.2425 0,16.847 -2.2,27.828 -6.59,33.449 -3.19,4.16 -8.31,6.598 -14.17,6.598 -7.81,0 -14.16,-4.887 -16.84,-12.7"
         style="fill:#636c73;fill-opacity:1;fill-rule:nonzero;stroke:none"
         id="path18" />
      <path
         d="m 2135.12,65.9297 c -14.41,-11.7188 -29.55,-17.3399 -47.13,-17.3399 -35.91,0 -59.1,25.4102 -59.1,64.7192 0,22.461 4.63,37.363 15.63,49.57 10.25,11.473 22.7,16.851 39.31,16.851 14.41,0 28.09,-4.89 36.14,-13.191 11.48,-11.719 16.61,-28.57 16.61,-54.699 v -7.57 h -72.29 v -0.969 c 0,-19.301 9.54,-30.2815 26.38,-30.2815 11.24,0 21.74,4.1407 31.75,12.4493 z m -32.49,62.2693 v 1.473 c 0,9.277 -0.97,14.156 -3.9,18.808 -3.17,4.879 -7.82,7.309 -14.4,7.309 -12.46,0 -19.55,-9.758 -19.55,-27.098 v -0.492 h 37.85"
         style="fill:#636c73;fill-opacity:1;fill-rule:nonzero;stroke:none"
         id="path20" />
      <path
         d="m 2236.44,146.762 c -12.45,6.347 -21.48,9.027 -30.77,9.027 -9.52,0 -15.87,-4.879 -15.87,-12.211 0,-6.34 4.15,-9.758 15.63,-12.687 l 15.14,-3.911 c 15.38,-3.902 20.52,-8.539 24.9,-14.16 4.65,-5.859 6.84,-12.9411 6.84,-21.2419 0,-25.8867 -21.48,-43.4687 -53.48,-43.4687 -15.38,0 -32.23,4.8789 -50.54,14.4023 l 11.73,23.9375 c 10,-6.1094 27.34,-14.1679 41.5,-14.1679 9.27,0 16.6,6.0976 16.6,14.1679 0,8.5508 -6.1,12.9414 -19.29,15.3788 l -14.64,2.692 c -8.31,1.46 -18.56,7.32 -22.97,12.699 -4.38,5.371 -7.08,14.402 -7.08,22.461 0,24.429 19.3,40.781 48.35,40.781 20.04,0 33.22,-6.109 44.7,-11.723 l -10.75,-21.976"
         style="fill:#636c73;fill-opacity:1;fill-rule:nonzero;stroke:none"
         id="path22" />
      <path
         d="m 2313.83,211.469 c 0,-11.231 -9.03,-20.27 -20.26,-20.27 -10.99,0 -20.02,9.039 -20.02,20.27 0,11.23 9.27,20.269 20.51,20.269 10.99,0 19.77,-9.039 19.77,-20.269 m -3.9,-31.5 V 52.0195 h -32.72 V 174.84 l 32.72,5.129"
         style="fill:#636c73;fill-opacity:1;fill-rule:nonzero;stroke:none"
         id="path24" />
      <path
         d="m 2359,172.398 c 12.21,5.133 22.72,7.332 34.19,7.332 20.99,0 35.41,-7.808 40.29,-21.73 1.72,-5.129 2.44,-9.039 2.2,-22.461 l -0.73,-42.0195 v -2.1914 c 0,-13.4375 2.19,-18.5586 11.72,-25.6367 l -17.34,-20.0312 c -7.57,3.1796 -14.41,8.8007 -17.58,15.1484 -2.44,-2.4375 -5.12,-4.8867 -7.57,-6.5977 -6.1,-4.4023 -14.9,-6.8398 -25.15,-6.8398 -27.85,0 -42.99,14.168 -42.99,39.0781 0,29.3008 20.27,42.9808 60.08,42.9808 2.44,0 4.64,0 7.33,-0.25 v 5.129 c 0,13.921 -2.69,18.562 -14.66,18.562 -10.5,0 -22.7,-5.133 -36.14,-14.172 l -13.92,23.442 c 6.6,4.16 11.48,6.597 20.27,10.257 m 42.5,-65.679 c -22.72,0 -30.53,-4.16 -30.53,-19.0471 0,-9.7813 6.1,-16.3711 14.4,-16.3711 6.11,0 12.22,3.168 17.1,8.5508 l 0.48,26.8674 h -1.45"
         style="fill:#636c73;fill-opacity:1;fill-rule:nonzero;stroke:none"
         id="path26" />
      <path
         d="m 2570.46,49.5703 c -17.59,0 -30.78,6.1094 -39.33,18.3086 -8.05,11.4922 -11.71,25.6406 -11.71,44.1991 0,27.602 8.79,43.473 20.51,53.973 9.04,8.058 19.78,12.461 31.74,12.461 13.19,0 23.94,-4.403 33.22,-12.953 l -11.73,-15.379 c -8.05,7.082 -13.67,9.531 -21.49,9.531 -9.28,0 -17.33,-4.891 -21.49,-13.199 -4.15,-8.301 -5.86,-20.5 -5.86,-37.352 0,-17.1014 3.42,-28.3397 9.78,-35.1717 4.38,-4.6367 10.49,-7.3164 17.57,-7.3164 9.04,0 18.07,4.3867 25.4,12.6992 l 11,-13.9297 c -11.73,-11.4726 -21.98,-15.8711 -37.61,-15.8711"
         style="fill:#636c73;fill-opacity:1;fill-rule:nonzero;stroke:none"
         id="path28" />
      <path
         d="m 2679.35,48.5898 c -32.73,0 -52.99,24.9102 -52.99,64.7192 0,39.562 20.26,64.461 52.51,64.461 36.14,0 53.72,-28.809 53.72,-65.692 0,-38.8163 -20.77,-63.4882 -53.24,-63.4882 m -0.48,111.8512 c -19.54,0 -27.6,-13.921 -27.6,-44.691 0,-37.3711 9.52,-49.8203 28.56,-49.8203 17.1,0 27.6,13.1992 27.6,45.1793 0,37.852 -10.99,49.332 -28.56,49.332"
         style="fill:#636c73;fill-opacity:1;fill-rule:nonzero;stroke:none"
         id="path30" />
      <path
         d="M 2896.18,52.0117 V 139.68 c 0,13.922 -4.4,18.808 -14.65,18.808 -11.23,0 -19.3,-7.328 -28.57,-16.609 V 52.0117 h -21.98 v 87.1793 c 0,13.68 -3.91,18.797 -15.14,18.797 -8.31,0 -17.58,-4.136 -28.08,-14.16 V 52.0117 h -22.23 v 89.8673 c 0,17.332 -0.97,21.98 -4.39,30.531 l 21.01,5.121 c 2.43,-4.152 4.13,-10.261 4.13,-17.09 10.51,10.981 22.97,17.329 34.44,17.329 11.49,0 22.95,-6.11 29.06,-19.282 12.21,12.934 24.91,19.282 37.37,19.282 19.05,0 31.25,-11.961 31.25,-34.43 V 52.0117 h -22.22"
         style="fill:#636c73;fill-opacity:1;fill-rule:nonzero;stroke:none"
         id="path32" />
      <path
         d="m 3011.42,49.5703 c -11.24,0 -22.22,4.1485 -31.74,12.6914 0.49,-3.9023 0.49,-9.2734 0.49,-13.6719 V 5.62109 L 2958.19,0.488281 V 144.32 c 0,14.399 -0.98,22.231 -2.69,30.032 l 21.73,3.66 c 0.97,-3.66 1.46,-7.321 1.46,-17.571 9.53,11.469 21.74,17.079 34.68,17.079 24.91,0 45.91,-20.258 45.91,-62.258 0,-38.0901 -16.6,-65.6917 -47.86,-65.6917 m -1.96,108.9097 c -10.98,0 -20.99,-5.371 -29.29,-15.14 V 81.0703 c 7.55,-8.0586 17.08,-13.4297 26.11,-13.4297 19.79,0 28.83,15.1485 28.83,44.9294 0,29.059 -6.36,45.91 -25.65,45.91"
         style="fill:#636c73;fill-opacity:1;fill-rule:nonzero;stroke:none"
         id="path34" />
      <path
         d="m 3173.06,46.8789 c -7.57,2.9414 -13.43,9.043 -16.36,17.5899 -3.17,-3.8985 -13.43,-16.1094 -34.68,-16.1094 -24.42,0 -39.56,12.4492 -39.56,35.8906 0,28.32 22.72,43.461 62.28,43.461 2.92,0 5.37,0 8.54,-0.242 v 8.062 c 0,14.41 -1.95,24.168 -19.05,24.168 -12.94,0 -27.59,-6.34 -37.6,-13.918 l -10.26,16.117 c 11.98,6.84 27.6,16.122 51.29,16.122 17.82,0 30.75,-6.598 35.4,-19.532 1.95,-5.379 2.45,-9.527 2.45,-21.5 0,-8.789 -0.99,-27.59 -0.99,-45.4099 0,-16.8593 0.49,-23.6875 10.02,-29.5586 z m -27.59,65.6911 c -16.85,0 -27.12,-3.172 -31.99,-8.781 -4.65,-5.3671 -6.35,-9.7773 -6.35,-17.8281 0,-13.4296 6.84,-21.25 19.29,-21.25 10.25,0 20.02,6.3477 25.64,16.1172 l 0.73,31.2499 c -3.42,0.254 -5.37,0.492 -7.32,0.492"
         style="fill:#636c73;fill-opacity:1;fill-rule:nonzero;stroke:none"
         id="path36" />
      <path
         d="m 3283.42,52.0117 v 82.5393 c 0,10.988 -0.97,14.898 -3.9,18.808 -2.45,3.172 -6.84,4.879 -12.46,4.879 -8.79,0 -21.97,-6.84 -30.28,-15.617 V 52.0117 h -22.22 v 91.0903 c 0,14.648 -1.22,20.269 -4.64,29.058 l 21.25,5.86 c 2.92,-5.86 4.15,-11.231 4.15,-18.809 7.07,5.867 10.73,9.027 15.87,11.969 7.08,4.148 15.14,6.109 22.71,6.109 12.94,0 24.41,-6.84 28.81,-17.34 1.96,-4.39 2.93,-9.769 2.93,-15.379 V 52.0117 h -22.22"
         style="fill:#636c73;fill-opacity:1;fill-rule:nonzero;stroke:none"
         id="path38" />
      <path
         d="M 3395.5,48.1094 C 3389.63,30.7617 3383.28,17.5781 3374.74,10.5 3368.88,5.62109 3360.34,1.71094 3352.02,0 l -7.08,14.6602 c 8.8,2.1914 15.15,6.3398 21.25,13.9101 3.9,4.8906 6.36,11.4805 10.01,23.9297 l -8.78,-1.2109 c -3.19,14.3906 -6.85,26.3593 -11.73,40.7695 l -27.1,80.3394 22.7,5.122 23.45,-76.911 c 2.19,-7.5699 5.36,-20.5074 7.08,-28.8199 h 1.46 c 1.96,8.3125 4.89,19.3007 8.32,30.2809 l 21.72,72.282 h 24.91 L 3395.5,48.1094"
         style="fill:#636c73;fill-opacity:1;fill-rule:nonzero;stroke:none"
         id="path40" />
      <path
         d="M 5734.28,1385.12 H 1384.94 V 557.07 c 0,-230.34 224.43,-232.992 233.99,-232.992 h 4324.04 v 817.812 c 0,236.61 -206.49,243.23 -208.69,243.23"
         style="fill:#ffffff;fill-opacity:1;fill-rule:nonzero;stroke:none"
         id="path42" />
      <path
         d="m 5779.18,791.988 c 47.33,74.262 77.39,134.543 114.93,254.692 4.19,13.52 43.43,144.67 -16.52,229.98 -50.84,72.37 -124.83,78.99 -174.01,78.99 H 2058.25 c -124.59,-54.19 -344.77,-180.18 -510.12,-439.869 -47.29,-74.261 -77.31,-134.562 -114.9,-254.679 -4.2,-13.532 -41.69,-137.231 15.61,-220.68 47.16,-68.692 129.5,-86.242 167.92,-86.203 H 5273.9 c 125.38,55.34 342.08,181.422 505.28,437.769"
         style="fill:#dc183d;fill-opacity:1;fill-rule:nonzero;stroke:none"
         id="path44" />
      <path
         d="M 1924.38,1355.65 H 1416.77 V 997.102 c 112,130.418 275.66,268.378 507.61,358.548"
         style="fill:#dc183d;fill-opacity:1;fill-rule:nonzero;stroke:none"
         id="path46" />
      <path
         d="m 5403.88,354.219 h 506.06 V 715.18 C 5798.71,584.441 5635.64,445.469 5403.88,354.219"
         style="fill:#dc183d;fill-opacity:1;fill-rule:nonzero;stroke:none"
         id="path48" />
      <path
         d="m 2213.96,604.41 c -52.78,0 -96.09,18.949 -129.93,52.781 -48.72,48.719 -47.37,108.95 -47.37,192.188 0,83.23 -1.35,143.461 47.37,192.181 33.84,33.84 77.15,52.79 129.93,52.79 90,0 160.38,-51.44 177.3,-152.26 h -95.42 c -9.48,38.558 -33.83,68.35 -81.21,68.35 -25.71,0 -46.69,-9.48 -60.22,-25.042 -18.27,-20.308 -23.69,-43.308 -23.69,-136.019 0,-92.707 5.42,-115.719 23.69,-136.02 13.53,-15.558 34.51,-25.039 60.22,-25.039 47.38,0 71.73,29.77 81.21,68.352 h 95.42 C 2374.34,655.84 2303.28,604.41 2213.96,604.41"
         style="fill:#ffffff;fill-opacity:1;fill-rule:nonzero;stroke:none"
         id="path50" />
      <path
         d="m 2458.92,608.469 v 481.821 h 317.37 v -83.92 H 2552.98 V 893.359 h 190.16 v -83.91 h -190.16 v -117.07 h 223.31 v -83.91 h -317.37"
         style="fill:#ffffff;fill-opacity:1;fill-rule:nonzero;stroke:none"
         id="path52" />
      <path
         d="m 3110.59,608.469 -94.07,192.179 h -67.66 V 608.469 h -94.07 v 481.821 h 188.8 c 98.13,0 156.32,-67 156.32,-147.528 0,-67.672 -41.28,-109.633 -87.97,-126.543 l 107.6,-207.75 z m -73.09,397.901 h -88.64 V 879.148 h 88.64 c 41.28,0 68.35,26.403 68.35,63.614 0,37.218 -27.07,63.608 -68.35,63.608"
         style="fill:#ffffff;fill-opacity:1;fill-rule:nonzero;stroke:none"
         id="path54" />
      <path
         d="m 3453.67,604.41 c -98.8,0 -177.29,66.988 -177.29,169.18 v 316.7 h 94.05 V 776.969 c 0,-55.489 32.49,-88.649 83.24,-88.649 50.75,0 83.91,33.16 83.91,88.649 v 313.321 h 93.39 v -316.7 c 0,-102.192 -78.51,-169.18 -177.3,-169.18"
         style="fill:#ffffff;fill-opacity:1;fill-rule:nonzero;stroke:none"
         id="path56" />
      <path
         d="m 3722.32,608.469 v 481.821 h 94.06 V 692.379 h 218.57 v -83.91 h -312.63"
         style="fill:#ffffff;fill-opacity:1;fill-rule:nonzero;stroke:none"
         id="path58" />
      <path
         d="m 4097.88,608.469 v 481.821 h 317.37 v -83.92 h -223.3 V 893.359 h 190.15 v -83.91 h -190.15 v -117.07 h 223.3 v -83.91 h -317.37"
         style="fill:#ffffff;fill-opacity:1;fill-rule:nonzero;stroke:none"
         id="path60" />
      <path
         d="m 4767.82,608.469 -28.42,85.269 h -171.21 l -29.1,-85.269 h -98.12 l 175.26,481.821 H 4690 l 175.94,-481.821 z m -112.34,339.711 -60.9,-175.27 h 119.78 z"
         style="fill:#ffffff;fill-opacity:1;fill-rule:nonzero;stroke:none"
         id="path62" />
      <path
         d="M 5196.84,608.469 5006.01,904.191 V 608.469 h -94.07 v 481.821 h 83.92 l 190.82,-295.052 v 295.052 h 94.07 V 608.469 h -83.91"
         style="fill:#ffffff;fill-opacity:1;fill-rule:nonzero;stroke:none"
         id="path64" />
      <g
         id="g66">
        <g
           id="g68"
           clip-path="url(#clipPath72)">
          <g
             id="g74"
             clip-path="url(#clipPath78)">
            <path
               d="m 419,927 v 1 h -20 v 1 h -14 v 1 h -9 v 1 h -9 v 1 h -7 v 1 h -6 v 1 h -7 v 1 h -5 v 1 h -5 v 1 h -6 v 1 h -5 v 1 h -4 v 1 h -4 v 1 h -4 v 1 h -4 v 1 h -5 v 1 h -3 v 1 h -4 v 1 h -3 v 1 h -4 v 1 h -3 v 1 h -3 v 1 h -3 v 1 h -3 v 1 h -3 v 1 h -3 v 1 h -3 v 1 h -3 v 1 h -3 v 1 h -3 v 1 h -2 v 1 h -3 v 1 h -2 v 1 h -3 v 1 h -3 v 1 h -2 v 1 h -2 v 1 h -3 v 1 h -2 v 1 h -2 v 1 h -2 v 1 h -3 v 1 h -2 v 1 h -2 v 1 h -2 v 1 h -2 v 1 h -2 v 1 h -2 v 1 h -2 v 1 h -2 v 1 h -2 v 1 h -2 v 1 h -2 v 1 h -2 v 1 h -2 v 1 h -2 v 1 h -2 v 1 h -1 v 1 h -2 v 1 h -2 v 1 h -2 v 1 h -2 v 1 h -1 v 1 h -2 v 1 h -2 v 1 h -1 v 1 h -2 v 1 h -1 v 1 h -2 v 1 h -2 v 1 h -1 v 1 h -2 v 1 h -2 v 1 h -1 v 1 h -2 v 1 h -1 v 1 h -1 v 1 h -2 v 1 h -1 v 1 h -2 v 1 h -1 v 1 h -2 v 1 h -1 v 1 h -2 v 1 h -1 v 1 h -1 v 1 h -2 v 1 h -1 v 1 h -1 v 1 h -2 v 1 h -1 v 1 h -1 v 1 h -2 v 1 h -1 v 1 h -1 v 1 h -2 v 1 h -1 v 1 h -1 v 1 h -1 v 1 h -1 v 1 h -2 v 1 h -1 v 1 h -1 v 1 h -1 v 1 h -1 v 1 h -1 v 1 h -2 v 1 h -1 v 1 h -1 v 1 h -1 v 1 h -1 v 1 h -1 v 1 h -1 v 1 h -1 v 1 h -2 v 1 h -1 v 1 h -1 v 1 h -1 v 1 h -1 v 1 h -1 v 1 h -1 v 1 h -1 v 1 h -1 v 1 h -1 v 1 h -1 v 1 h -1 v 1 h -1 v 1 h -1 v 1 h -1 v 1 h -1 v 1 h -1 v 1 h -1 v 1 h -1 v 1 h -1 v 1 h -1 v 1 h -1 v 1 h -1 v 1 h -1 v 2 h -1 v 1 h -1 v 1 h -1 v 1 h -1 v 1 h -1 v 1 h -1 v 1 h -1 v 2 h -1 v 1 h -1 v 1 h -1 v 1 h -1 v 1 h -1 v 1 h -1 v 2 h -1 v 1 h -1 v 1 h -1 v 1 h -1 v 2 h -1 v 1 h -1 v 1 h -1 v 2 h -1 v 1 h -1 v 1 h -1 v 1 h -1 v 2 h -1 v 1 h -1 v 2 h -1 v 1 h -1 v 1 h -1 v 2 h -1 v 1 h -1 v 2 h -1 v 1 h -1 v 1 h -1 v 2 h -1 v 1 h -1 v 2 h -1 v 1 h -1 v 2 h -1 v 2 h -1 v 1 h -1 v 2 h -1 v 1 h -1 v 2 h -1 v 2 h -1 v 1 h -1 v 2 h -1 v 2 h -1 v 1 h -1 v 2 h -1 v 2 h -1 v 2 h -1 v 2 h -1 v 1 h -1 v 2 h -1 v 2 h -1 v 2 h -1 v 2 h -1 v 2 h -1 v 2 h -1 v 2 h -1 v 2 h -1 v 2 h -1 v 2 h -1 v 3 h -1 v 2 h -1 v 2 h -1 v 3 h -1 v 2 h -1 v 2 h -1 v 3 h -1 v 2 h -1 v 3 h -1 v 2 h -1 v 3 h -1 v 3 h -1 v 3 h -1 v 3 h -1 v 2 h -1 v 3 h -1 v 4 h -1 v 3 h -1 v 3 h -1 v 4 h -1 v 3 h -1 v 4 h -1 v 4 h -1 v 4 h -1 v 4 H 9 v 4 H 8 v 6 H 7 v 5 H 6 v 5 H 5 v 6 H 4 v 7 H 3 v 8 H 2 v 9 H 1 v 13 H 0 v 54 h 1 v 9 h 1 v 9 h 1 v 9 h 1 v 5 h 1 v 5 h 1 v 6 h 1 v 5 h 1 v 4 h 1 v 4 h 1 v 4 h 1 v 4 h 1 v 3 h 1 v 4 h 1 v 4 h 1 v 3 h 1 v 3 h 1 v 3 h 1 v 3 h 1 v 2 h 1 v 3 h 1 v 3 h 1 v 3 h 1 v 3 h 1 v 2 h 1 v 2 h 1 v 2 h 1 v 3 h 1 v 2 h 1 v 2 h 1 v 3 h 1 v 2 h 1 v 2 h 1 v 2 h 1 v 2 h 1 v 2 h 1 v 2 h 1 v 2 h 1 v 2 h 1 v 2 h 1 v 2 h 1 v 2 h 1 v 2 h 1 v 2 h 1 v 1 h 1 v 2 h 1 v 2 h 1 v 1 h 1 v 2 h 1 v 2 h 1 v 1 h 1 v 2 h 1 v 1 h 1 v 2 h 1 v 2 h 1 v 1 h 1 v 2 h 1 v 1 h 1 v 2 h 1 v 1 h 1 v 2 h 1 v 1 h 1 v 1 h 1 v 2 h 1 v 1 h 1 v 2 h 1 v 1 h 1 v 1 h 1 v 2 h 1 v 1 h 1 v 2 h 1 v 1 h 1 v 1 h 1 v 1 h 1 v 2 h 1 v 1 h 1 v 1 h 1 v 1 h 1 v 1 h 1 v 2 h 1 v 1 h 1 v 1 h 1 v 1 h 1 v 1 h 1 v 2 h 1 v 1 h 1 v 1 h 1 v 1 h 1 v 1 h 1 v 1 h 1 v 1 h 1 v 1 h 1 v 1 h 1 v 1 h 1 v 1 h 1 v 1 h 1 v 2 h 1 v 1 h 1 v 1 h 1 v 1 h 1 v 1 h 1 v 1 h 1 v 1 h 1 v 1 h 1 v 1 h 1 v 1 h 1 v 1 h 1 v 1 h 2 v 1 h 1 v 1 h 1 v 1 h 1 v 1 h 1 v 1 h 1 v 1 h 1 v 1 h 1 v 1 h 1 v 1 h 2 v 1 h 1 v 1 h 1 v 1 h 1 v 1 h 1 v 1 h 1 v 1 h 1 v 1 h 2 v 1 h 1 v 1 h 1 v 1 h 2 v 1 h 1 v 1 h 1 v 1 h 1 v 1 h 2 v 1 h 1 v 1 h 1 v 1 h 2 v 1 h 1 v 1 h 1 v 1 h 1 v 1 h 2 v 1 h 1 v 1 h 2 v 1 h 1 v 1 h 2 v 1 h 1 v 1 h 2 v 1 h 1 v 1 h 2 v 1 h 1 v 1 h 2 v 1 h 1 v 1 h 2 v 1 h 1 v 1 h 2 v 1 h 2 v 1 h 1 v 1 h 2 v 1 h 2 v 1 h 2 v 1 h 1 v 1 h 2 v 1 h 2 v 1 h 2 v 1 h 1 v 1 h 2 v 1 h 2 v 1 h 2 v 1 h 2 v 1 h 2 v 1 h 2 v 1 h 2 v 1 h 2 v 1 h 2 v 1 h 2 v 1 h 2 v 1 h 2 v 1 h 3 v 1 h 1 v 1 h -2 v 1 h -2 v 1 h -1 v 1 h -2 v 1 h -2 v 1 h -1 v 1 h -2 v 1 h -1 v 1 h -2 v 1 h -1 v 1 h -2 v 1 h -1 v 1 h -2 v 1 h -1 v 1 h -2 v 1 h -2 v 1 h -1 v 1 h -2 v 1 h -1 v 1 h -1 v 1 h -1 v 1 h -1 v 1 h -2 v 1 h -1 v 1 h -1 v 1 h -1 v 1 h -2 v 1 h -1 v 1 h -1 v 1 h -1 v 1 h -2 v 1 h -1 v 1 h -1 v 1 h -1 v 1 h -2 v 1 h -1 v 1 h -1 v 1 h -1 v 1 h -1 v 1 h -1 v 1 h -1 v 1 h -1 v 1 h -1 v 1 h -1 v 1 h -1 v 1 h -1 v 1 h -1 v 1 h -1 v 1 h -1 v 1 h -1 v 1 h -1 v 1 h -1 v 1 h -1 v 1 h -1 v 1 h -1 v 2 h -1 v 1 h -1 v 1 h -1 v 1 h -1 v 1 h -1 v 1 h -1 v 1 h -1 v 1 h -1 v 1 h -1 v 2 h -1 v 1 h -1 v 2 h -1 v 1 h -1 v 2 h -1 v 1 h -1 v 1 h -1 v 2 h -1 v 1 h -1 v 2 h -1 v 1 h -1 v 2 h -1 v 1 h -1 v 1 h -1 v 2 h -1 v 1 h -1 v 2 h -1 v 1 h -1 v 2 h -1 v 2 h -1 v 2 h -1 v 2 h -1 v 2 h -1 v 2 h -1 v 2 h -1 v 2 h -1 v 2 h -1 v 2 h -1 v 2 h -1 v 2 h -1 v 2 h -1 v 2 h -1 v 3 h -1 v 3 h -1 v 3 h -1 v 3 h -1 v 3 h -1 v 2 h -1 v 3 h -1 v 3 h -1 v 3 h -1 v 3 h -1 v 3 h -1 v 6 h -1 v 5 h -1 v 5 h -1 v 5 h -1 v 6 h -1 v 5 h -1 v 9 h -1 v 13 h -1 v 36 h 1 v 14 h 1 v 9 h 1 v 6 h 1 v 6 h 1 v 6 h 1 v 7 h 1 v 5 h 1 v 4 h 1 v 3 h 1 v 4 h 1 v 4 h 1 v 4 h 1 v 3 h 1 v 4 h 1 v 4 h 1 v 3 h 1 v 2 h 1 v 3 h 1 v 2 h 1 v 3 h 1 v 2 h 1 v 3 h 1 v 3 h 1 v 2 h 1 v 3 h 1 v 2 h 1 v 3 h 1 v 2 h 1 v 2 h 1 v 2 h 1 v 2 h 1 v 2 h 1 v 1 h 1 v 2 h 1 v 2 h 1 v 2 h 1 v 2 h 1 v 2 h 1 v 2 h 1 v 2 h 1 v 2 h 1 v 2 h 1 v 1 h 1 v 2 h 1 v 1 h 1 v 2 h 1 v 1 h 1 v 2 h 1 v 1 h 1 v 2 h 1 v 1 h 1 v 2 h 1 v 1 h 1 v 2 h 1 v 1 h 1 v 2 h 1 v 1 h 1 v 2 h 1 v 1 h 1 v 2 h 1 v 1 h 1 v 1 h 1 v 1 h 1 v 2 h 1 v 1 h 1 v 1 h 1 v 1 h 1 v 1 h 1 v 2 h 1 v 1 h 1 v 1 h 1 v 1 h 1 v 1 h 1 v 2 h 1 v 1 h 1 v 1 h 1 v 1 h 1 v 1 h 1 v 2 h 1 v 1 h 1 v 1 h 1 v 1 h 1 v 1 h 1 v 1 h 1 v 1 h 1 v 1 h 1 v 1 h 1 v 1 h 1 v 1 h 1 v 1 h 1 v 1 h 1 v 1 h 1 v 1 h 1 v 1 h 1 v 1 h 1 v 1 h 1 v 1 h 1 v 1 h 1 v 1 h 1 v 1 h 2 v 1 h 1 v 1 h 1 v 1 h 1 v 1 h 1 v 1 h 1 v 1 h 1 v 1 h 2 v 1 h 1 v 1 h 1 v 1 h 2 v 1 h 1 v 1 h 1 v 1 h 1 v 1 h 2 v 1 h 1 v 1 h 1 v 1 h 1 v 1 h 2 v 1 h 1 v 1 h 1 v 1 h 1 v 1 h 2 v 1 h 1 v 1 h 2 v 1 h 1 v 1 h 2 v 1 h 1 v 1 h 2 v 1 h 1 v 1 h 2 v 1 h 1 v 1 h 2 v 1 h 1 v 1 h 2 v 1 h 1 v 1 h 2 v 1 h 2 v 1 h 1 v 1 h 2 v 1 h 1 v 1 h 2 v 1 h 2 v 1 h 2 v 1 h 2 v 1 h 2 v 1 h 2 v 1 h 2 v 1 h 1 v 1 h 2 v 1 h 2 v 1 h 2 v 1 h 2 v 1 h 2 v 1 h 2 v 1 h 2 v 1 h 2 v 1 h 3 v 1 h 2 v 1 h 2 v 1 h 3 v 1 h 2 v 1 h 3 v 1 h 2 v 1 h 3 v 1 h 2 v 1 h 3 v 1 h 2 v 1 h 2 v 1 h 4 v 1 h 3 v 1 h 3 v 1 h 3 v 1 h 4 v 1 h 3 v 1 h 3 v 1 h 3 v 1 h 4 v 1 h 3 v 1 h 4 v 1 h 5 v 1 h 5 v 1 h 4 v 1 h 5 v 1 h 5 v 1 h 4 v 1 h 7 v 1 h 8 v 1 h 8 v 1 h 8 v 1 h 11 v 1 h 61 v -1 h 11 v -1 h 8 v -1 h 8 v -1 h 8 v -1 h 7 v -1 h 5 v -1 h 4 v -1 h 5 v -1 h 5 v -1 h 4 v -1 h 5 v -1 h 4 v -1 h 4 v -1 h 3 v -1 h 3 v -1 h 3 v -1 h 4 v -1 h 3 v -1 h 3 v -1 h 3 v -1 h 3 v -1 h 4 v -1 h 2 v -1 h 2 v -1 h 3 v -1 h 2 v -1 h 3 v -1 h 2 v -1 h 3 v -1 h 2 v -1 h 2 v -1 h 3 v -1 h 2 v -1 h 3 v -1 h 2 v -1 h 2 v -1 h 2 v -1 h 2 v -1 h 2 v -1 h 2 v -1 h 1 v -1 h 2 v -1 h 2 v -1 h 2 v -1 h 2 v -1 h 2 v -1 h 2 v -1 h 2 v -1 h 2 v -1 h 2 v -1 h 1 v -1 h 2 v -1 h 1 v -1 h 2 v -1 h 1 v -1 h 2 v -1 h 1 v -1 h 2 v -1 h 1 v -1 h 2 v -1 h 1 v -1 h 2 v -1 h 2 v -1 h 1 v -1 h 2 v -1 h 1 v -1 h 2 v -1 h 1 v -1 h 1 v -1 h 2 v -1 h 1 v -1 h 1 v -1 h 1 v -1 h 2 v -1 h 1 v -1 h 1 v -1 h 1 v -1 h 2 v -1 h 1 v -1 h 1 v -1 h 1 v -1 h 2 v -1 h 1 v -1 h 1 v -1 h 1 v -1 h 2 v -1 h 1 v -1 h 1 v -1 h 1 v -1 h 1 v -1 h 1 v -1 h 1 v -1 h 1 v -1 h 1 v -1 h 1 v -1 h 1 v -1 h 1 v -1 h 1 v -1 h 1 v -1 h 1 v -1 h 1 v -1 h 1 v -1 h 1 v -1 h 1 v -1 h 1 v -1 h 1 v -1 h 1 v -1 h 1 v -1 h 1 v -1 h 1 v -1 h 1 v -1 h 1 v -1 h 1 v -1 h 1 v -1 h 1 v -2 h 1 v -1 h 1 v -1 h 1 v -1 h 1 v -1 h 1 v -2 h 1 v -1 h 1 v -1 h 1 v -1 h 1 v -1 h 1 v -2 h 1 v -1 h 1 v -1 h 1 v -1 h 1 v -1 h 1 v -2 h 1 v -1 h 1 v -1 h 1 v -2 h 1 v -1 h 1 v -2 h 1 v -1 h 1 v -2 h 1 v -1 h 1 v -2 h 1 v -1 h 1 v -2 h 1 v -1 h 1 v -2 h 1 v -1 h 1 v -2 h 1 v -1 h 1 v -2 h 1 v -1 h 1 v -2 h 1 v -2 h 1 v -2 h 1 v -2 h 1 v -2 h 1 v -2 h 1 v -2 h 1 v -2 h 1 v -2 h 1 v -2 h 1 v -2 h 1 v -1 h 1 v -2 h 1 v -2 h 1 v -2 h 1 v -3 h 1 v -2 h 1 v -3 h 1 v -2 h 1 v -3 h 1 v -2 h 1 v -3 h 1 v -3 h 1 v -2 h 1 v -3 h 1 v -2 h 1 v -3 h 1 v -3 h 1 v -4 h 1 v -4 h 1 v -4 h 1 v -3 h 1 v -4 h 1 v -4 h 1 v -3 h 1 v -5 h 1 v -6 h 1 v -6 h 1 v -7 h 1 v -6 h 1 v -6 h 1 v -13 h 1 v -15 h 1 v -20 h -1 v -13 h -1 v -12 h -1 v -7 h -1 v -5 h -1 v -5 h -1 v -5 h -1 v -6 h -1 v -5 h -1 v -5 h -1 v -2 h -1 v -3 h -1 v -3 h -1 v -3 h -1 v -3 h -1 v -3 h -1 v -3 h -1 v -3 h -1 v -3 h -1 v -3 h -1 v -2 h -1 v -2 h -1 v -2 h -1 v -2 h -1 v -2 h -1 v -2 h -1 v -2 h -1 v -2 h -1 v -2 h -1 v -2 h -1 v -2 h -1 v -2 h -1 v -2 h -1 v -2 h -1 v -2 h -1 v -1 h -1 v -2 h -1 v -1 h -1 v -2 h -1 v -1 h -1 v -1 h -1 v -2 h -1 v -1 h -1 v -2 h -1 v -1 h -1 v -2 h -1 v -1 h -1 v -1 h -1 v -2 h -1 v -1 h -1 v -2 h -1 v -1 h -1 v -1 h -1 v -2 h -1 v -1 h -1 v -1 h -1 v -1 h -1 v -1 h -1 v -1 h -1 v -1 h -1 v -1 h -1 v -1 h -1 v -1 h -1 v -1 h -1 v -1 h -1 v -1 h -1 v -2 h -1 v -1 h -1 v -1 h -1 v -1 h -1 v -1 h -1 v -1 h -1 v -1 h -1 v -1 h -1 v -1 h -1 v -1 h -1 v -1 h -1 v -1 h -1 v -1 h -1 v -1 h -2 v -1 h -1 v -1 h -1 v -1 h -1 v -1 h -2 v -1 h -1 v -1 h -1 v -1 h -1 v -1 h -2 v -1 h -1 v -1 h -1 v -1 h -1 v -1 h -2 v -1 h -1 v -1 h -1 v -1 h -1 v -1 h -2 v -1 h -1 v -1 h -1 v -1 h -1 v -1 h -2 v -1 h -2 v -1 h -1 v -1 h -2 v -1 h -1 v -1 h -2 v -1 h -1 v -1 h -2 v -1 h -1 v -1 h -2 v -1 h -1 v -1 h -2 v -1 h -1 v -1 h -2 v -1 h -2 v -1 h -2 v -1 h -1 v -1 h -1 v -1 h 3 v -1 h 2 v -1 h 2 v -1 h 2 v -1 h 2 v -1 h 2 v -1 h 2 v -1 h 2 v -1 h 2 v -1 h 2 v -1 h 2 v -1 h 2 v -1 h 1 v -1 h 2 v -1 h 2 v -1 h 2 v -1 h 2 v -1 h 2 v -1 h 1 v -1 h 2 v -1 h 1 v -1 h 2 v -1 h 1 v -1 h 2 v -1 h 2 v -1 h 1 v -1 h 2 v -1 h 1 v -1 h 2 v -1 h 1 v -1 h 2 v -1 h 1 v -1 h 2 v -1 h 2 v -1 h 1 v -1 h 2 v -1 h 1 v -1 h 2 v -1 h 1 v -1 h 1 v -1 h 2 v -1 h 1 v -1 h 1 v -1 h 1 v -1 h 2 v -1 h 1 v -1 h 1 v -1 h 1 v -1 h 1 v -1 h 2 v -1 h 1 v -1 h 1 v -1 h 1 v -1 h 2 v -1 h 1 v -1 h 1 v -1 h 1 v -1 h 2 v -1 h 1 v -1 h 1 v -1 h 1 v -1 h 1 v -1 h 2 v -1 h 1 v -1 h 1 v -1 h 1 v -1 h 1 v -1 h 1 v -1 h 1 v -1 h 1 v -1 h 1 v -1 h 1 v -1 h 1 v -1 h 1 v -1 h 1 v -1 h 1 v -1 h 1 v -1 h 1 v -1 h 1 v -1 h 1 v -1 h 1 v -1 h 1 v -1 h 1 v -1 h 1 v -1 h 1 v -1 h 1 v -1 h 1 v -1 h 1 v 26 h 1 v 19 h 1 v 13 h 1 v 12 h 1 v 8 h 1 v 8 h 1 v 8 h 1 v 7 h 1 v 6 h 1 v 6 h 1 v 5 h 1 v 6 h 1 v 6 h 1 v 4 h 1 v 4 h 1 v 5 h 1 v 4 h 1 v 5 h 1 v 4 h 1 v 4 h 1 v 4 h 1 v 4 h 1 v 3 h 1 v 4 h 1 v 4 h 1 v 3 h 1 v 4 h 1 v 3 h 1 v 3 h 1 v 3 h 1 v 3 h 1 v 4 h 1 v 3 h 1 v 3 h 1 v 3 h 1 v 3 h 1 v 3 h 1 v 2 h 1 v 3 h 1 v 3 h 1 v 2 h 1 v 3 h 1 v 3 h 1 v 2 h 1 v 3 h 1 v 3 h 1 v 2 h 1 v 3 h 1 v 2 h 1 v 2 h 1 v 3 h 1 v 2 h 1 v 2 h 1 v 2 h 1 v 3 h 1 v 2 h 1 v 2 h 1 v 3 h 1 v 2 h 1 v 2 h 1 v 2 h 1 v 2 h 1 v 2 h 1 v 2 h 1 v 2 h 1 v 2 h 1 v 2 h 1 v 2 h 1 v 2 h 1 v 2 h 1 v 2 h 1 v 2 h 1 v 3 h 1 v 1 h 1 v 2 h 1 v 2 h 1 v 2 h 1 v 2 h 1 v 1 h 1 v 2 h 1 v 2 h 1 v 2 h 1 v 2 h 1 v 1 h 1 v 2 h 1 v 2 h 1 v 2 h 1 v 2 h 1 v 1 h 1 v 2 h 1 v 1 h 1 v 2 h 1 v 2 h 1 v 1 h 1 v 2 h 1 v 2 h 1 v 1 h 1 v 2 h 1 v 1 h 1 v 2 h 1 v 2 h 1 v 1 h 1 v 2 h 1 v 1 h 1 v 2 h 1 v 1 h 1 v 2 h 1 v 1 h 1 v 2 h 1 v 1 h 1 v 2 h 1 v 1 h 1 v 2 h 1 v 1 h 1 v 1 h 1 v 2 h 1 v 1 h 1 v 2 h 1 v 1 h 1 v 2 h 1 v 1 h 1 v 1 h 1 v 2 h 1 v 1 h 1 v 1 h 1 v 2 h 1 v 1 h 1 v 1 h 1 v 2 h 1 v 1 h 1 v 1 h 1 v 2 h 1 v 1 h 1 v 1 h 1 v 2 h 1 v 1 h 1 v 1 h 1 v 2 h 1 v 1 h 1 v 1 h 1 v 1 h 1 v 1 h 1 v 2 h 1 v 1 h 1 v 1 h 1 v 1 h 1 v 1 h 1 v 2 h 1 v 1 h 1 v 1 h 1 v 1 h 1 v 1 h 1 v 2 h 1 v 1 h 1 v 1 h 1 v 1 h 1 v 1 h 1 v 2 h 1 v 1 h 1 v 1 h 1 v 1 h 1 v 1 h 1 v 1 h 1 v 1 h 1 v 1 h 1 v 1 h 1 v 1 h 1 v 1 h 1 v 1 h 1 v 2 h 1 v 1 h 1 v 1 h 1 v 1 h 1 v 1 h 1 v 1 h 1 v 1 h 1 v 1 h 1 v 1 h 1 v 1 h 1 v 1 h 1 v 1 h 1 v 1 h 1 v 1 h 1 v 1 h 1 v 1 h 1 v 1 h 1 v 1 h 1 v 1 h 1 v 1 h 1 v 1 h 1 v 1 h 1 v 1 h 1 v 1 h 1 v 1 h 1 v 1 h 1 v 1 h 1 v 1 h 1 v 1 h 1 v 1 h 1 v 1 h 1 v 1 h 1 v 1 h 1 v 1 h 1 v 1 h 2 v 1 h 1 v 1 h 1 v 1 h 1 v 1 h 1 v 1 h 1 v 1 h 1 v 1 h 1 v 1 h 2 v 1 h 1 v 1 h 1 v 1 h 1 v 1 h 1 v 1 h 1 v 1 h 1 v 1 h 1 v 1 h 2 v 1 h 1 v 1 h 1 v 1 h 1 v 1 h 1 v 1 h 2 v 1 h 1 v 1 h 1 v 1 h 1 v 1 h 2 v 1 h 1 v 1 h 1 v 1 h 1 v 1 h 2 v 1 h 1 v 1 h 1 v 1 h 1 v 1 h 2 v 1 h 1 v 1 h 1 v 1 h 1 v 1 h 2 v 1 h 1 v 1 h 1 v 1 h 2 v 1 h 1 v 1 h 2 v 1 h 1 v 1 h 1 v 1 h 2 v 1 h 1 v 1 h 1 v 1 h 2 v 1 h 1 v 1 h 2 v 1 h 1 v 1 h 1 v 1 h 2 v 1 h 1 v 1 h 2 v 1 h 1 v 1 h 2 v 1 h 1 v 1 h 2 v 1 h 1 v 1 h 2 v 1 h 1 v 1 h 2 v 1 h 1 v 1 h 2 v 1 h 1 v 1 h 2 v 1 h 2 v 1 h 1 v 1 h 2 v 1 h 1 v 1 h 2 v 1 h 2 v 1 h 1 v 1 h 2 v 1 h 2 v 1 h 1 v 1 h 2 v 1 h 2 v 1 h 2 v 1 h 1 v 1 h 2 v 1 h 2 v 1 h 1 v 1 h 2 v 1 h 2 v 1 h 2 v 1 h 2 v 1 h 2 v 1 h 2 v 1 h 2 v 1 h 1 v 1 h 2 v 1 h 2 v 1 h 2 v 1 h 2 v 1 h 2 v 1 h 2 v 1 h 2 v 1 h 2 v 1 h 2 v 1 h 2 v 1 h 2 v 1 h 3 v 1 h 2 v 1 h 2 v 1 h 2 v 1 h 2 v 1 h 2 v 1 h 3 v 1 h 2 v 1 h 2 v 1 h 2 v 1 h 3 v 1 h 2 v 1 h 3 v 1 h 2 v 1 h 3 v 1 h 2 v 1 h 3 v 1 h 2 v 1 h 3 v 1 h 2 v 1 h 3 v 1 h 2 v 1 h 3 v 1 h 3 v 1 h 3 v 1 h 3 v 1 h 3 v 1 h 3 v 1 h 3 v 1 h 3 v 1 h 3 v 1 h 3 v 1 h 3 v 1 h 4 v 1 h 3 v 1 h 4 v 1 h 3 v 1 h 4 v 1 h 3 v 1 h 4 v 1 h 4 v 1 h 4 v 1 h 4 v 1 h 5 v 1 h 4 v 1 h 4 v 1 h 5 v 1 h 4 v 1 h 6 v 1 h 5 v 1 h 6 v 1 h 5 v 1 h 6 v 1 h 6 v 1 h 8 v 1 h 8 v 1 h 8 v 1 h 9 v 1 h 13 v 1 h 14 v 1 h 77 v -1 h 16 v -1 h 10 v -1 h 10 v -1 h 10 v -1 h 6 v -1 h 7 v -1 h 7 v -1 h 7 v -1 h 5 v -1 h 5 v -1 h 5 v -1 h 6 v -1 h 5 v -1 h 4 v -1 h 4 v -1 h 5 v -1 h 4 v -1 h 4 v -1 h 4 v -1 h 4 v -1 h 4 v -1 h 3 v -1 h 4 v -1 h 3 v -1 h 4 v -1 h 4 v -1 h 3 v -1 h 3 v -1 h 3 v -1 h 3 v -1 h 3 v -1 h 3 v -1 h 3 v -1 h 3 v -1 h 3 v -1 h 3 v -1 h 2 v -1 h 3 v -1 h 3 v -1 h 2 v -1 h 3 v -1 h 3 v -1 h 2 v -1 h 3 v -1 h 2 v -1 h 3 v -1 h 2 v -1 h 2 v -1 h 3 v -1 h 2 v -1 h 3 v -1 h 2 v -1 h 2 v -1 h 2 v -1 h 3 v -1 h 2 v -1 h 2 v -1 h 2 v -1 h 2 v -1 h 2 v -1 h 2 v -1 h 2 v -1 h 3 v -1 h 2 v -1 h 2 v -1 h 2 v -1 h 1 v -1 h 2 v -1 h 2 v -1 h 2 v -1 h 2 v -1 h 2 v -1 h 2 v -1 h 2 v -1 h 2 v -1 h 2 v -1 h 1 v -1 h 2 v -1 h 2 v -1 h 2 v -1 h 1 v -1 h 2 v -1 h 2 v -1 h 2 v -1 h 1 v -1 h 2 v -1 h 2 v -1 h 2 v -1 h 1 v -1 h 2 v -1 h 1 v -1 h 2 v -1 h 2 v -1 h 1 v -1 h 2 v -1 h 1 v -1 h 2 v -1 h 1 v -1 h 2 v -1 h 2 v -1 h 1 v -1 h 2 v -1 h 1 v -1 h 2 v -1 h 1 v -1 h 2 v -1 h 1 v -1 h 1 v -1 h 2 v -1 h 1 v -1 h 2 v -1 h 1 v -1 h 2 v -1 h 1 v -1 h 2 v -1 h 1 v -1 h 1 v -1 h 2 v -1 h 1 v -1 h 1 v -1 h 2 v -1 h 1 v -1 h 1 v -1 h 2 v -1 h 1 v -1 h 1 v -1 h 2 v -1 h 1 v -1 h 1 v -1 h 2 v -1 h 1 v -1 h 1 v -1 h 1 v -1 h 2 v -1 h 1 v -1 h 1 v -1 h 1 v -1 h 2 v -1 h 1 v -1 h 1 v -1 h 1 v -1 h 2 v -1 h 1 v -1 h 1 v -1 h 1 v -1 h 1 v -1 h 2 v -1 h 1 v -1 h 1 v -1 h 1 v -1 h 1 v -1 h 1 v -1 h 1 v -1 h 2 v -1 h 1 v -1 h 1 v -1 h 1 v -1 h 1 v -1 h 1 v -1 h 1 v -1 h 1 v -1 h 2 v -1 h 1 v -1 h 1 v -1 h 1 v -1 h 1 v -1 h 1 v -1 h 1 v -1 h 1 v -1 h 1 v -1 h 1 v -1 h 1 v -1 h 1 v -1 h 1 v -1 h 1 v -1 h 1 v -1 h 1 v -1 h 1 v -1 h 1 v -1 h 1 v -1 h 1 v -1 h 1 v -1 h 1 v -1 h 1 v -1 h 1 v -1 h 1 v -1 h 1 v -1 h 1 v -1 h 1 v -1 h 1 v -1 h 1 v -1 h 1 v -1 h 1 v -1 h 1 v -1 h 1 v -1 h 1 v -1 h 1 v -1 h 1 v -1 h 1 v -1 h 1 v -1 h 1 v -2 h 1 v -1 h 1 v -1 h 1 v -1 h 1 v -1 h 1 v -1 h 1 v -1 h 1 v -2 h 1 v -1 h 1 v -1 h 1 v -1 h 1 v -1 h 1 v -1 h 1 v -1 h 1 v -1 h 1 v -2 h 1 v -1 h 1 v -1 h 1 v -1 h 1 v -2 h 1 v -1 h 1 v -1 h 1 v -1 h 1 v -1 h 1 v -2 h 1 v -1 h 1 v -1 h 1 v -1 h 1 v -2 h 1 v -1 h 1 v -1 h 1 v -1 h 1 v -2 h 1 v -1 h 1 v -1 h 1 v -2 h 1 v -1 h 1 v -1 h 1 v -2 h 1 v -1 h 1 v -1 h 1 v -2 h 1 v -1 h 1 v -1 h 1 v -2 h 1 v -1 h 1 v -1 h 1 v -2 h 1 v -1 h 1 v -2 h 1 v -1 h 1 v -2 h 1 v -1 h 1 v -2 h 1 v -1 h 1 v -1 h 1 v -2 h 1 v -1 h 1 v -2 h 1 v -1 h 1 v -2 h 1 v -1 h 1 v -2 h 1 v -1 h 1 v -2 h 1 v -2 h 1 v -1 h 1 v -2 h 1 v -1 h 1 v -2 h 1 v -1 h 1 v -2 h 1 v -2 h 1 v -1 h 1 v -2 h 1 v -2 h 1 v -1 h 1 v -2 h 1 v -2 h 1 v -2 h 1 v -1 h 1 v -2 h 1 v -2 h 1 v -1 h 1 v -2 h 1 v -2 h 1 v -2 h 1 v -2 h 1 v -2 h 1 v -1 h 1 v -2 h 1 v -2 h 1 v -2 h 1 v -2 h 1 v -2 h 1 v -2 h 1 v -2 h 1 v -2 h 1 v -2 h 1 v -2 h 1 v -2 h 1 v -2 h 1 v -2 h 1 v -2 h 1 v -2 h 1 v -2 h 1 v -2 h 1 v -2 h 1 v -3 h 1 v -2 h 1 v -2 h 1 v -2 h 1 v -3 h 1 v -2 h 1 v -2 h 1 v -3 h 1 v -2 h 1 v -2 h 1 v -3 h 1 v -2 h 1 v -3 h 1 v -2 h 1 v -3 h 1 v -3 h 1 v -2 h 1 v -3 h 1 v -2 h 1 v -3 h 1 v -3 h 1 v -3 h 1 v -3 h 1 v -3 h 1 v -3 h 1 v -3 h 1 v -2 h 1 v -4 h 1 v -3 h 1 v -3 h 1 v -3 h 1 v -4 h 1 v -3 h 1 v -3 h 1 v -4 h -215 v 2 h -1 v 2 h -1 v 3 h -1 v 2 h -1 v 2 h -1 v 2 h -1 v 2 h -1 v 2 h -1 v 2 h -1 v 2 h -1 v 2 h -1 v 2 h -1 v 2 h -1 v 2 h -1 v 2 h -1 v 2 h -1 v 1 h -1 v 2 h -1 v 2 h -1 v 2 h -1 v 1 h -1 v 2 h -1 v 2 h -1 v 2 h -1 v 2 h -1 v 1 h -1 v 2 h -1 v 2 h -1 v 2 h -1 v 1 h -1 v 2 h -1 v 1 h -1 v 2 h -1 v 1 h -1 v 2 h -1 v 1 h -1 v 2 h -1 v 1 h -1 v 2 h -1 v 1 h -1 v 2 h -1 v 1 h -1 v 2 h -1 v 1 h -1 v 2 h -1 v 1 h -1 v 1 h -1 v 2 h -1 v 1 h -1 v 1 h -1 v 2 h -1 v 1 h -1 v 1 h -1 v 1 h -1 v 2 h -1 v 1 h -1 v 1 h -1 v 2 h -1 v 1 h -1 v 1 h -1 v 2 h -1 v 1 h -1 v 1 h -1 v 1 h -1 v 2 h -1 v 1 h -1 v 1 h -1 v 1 h -1 v 1 h -1 v 1 h -1 v 1 h -1 v 1 h -1 v 1 h -1 v 2 h -1 v 1 h -1 v 1 h -1 v 1 h -1 v 1 h -1 v 1 h -1 v 1 h -1 v 1 h -1 v 2 h -1 v 1 h -1 v 1 h -1 v 1 h -1 v 1 h -1 v 1 h -1 v 1 h -1 v 1 h -1 v 1 h -1 v 1 h -1 v 1 h -1 v 1 h -1 v 1 h -2 v 1 h -1 v 1 h -1 v 1 h -1 v 1 h -1 v 1 h -1 v 1 h -1 v 1 h -1 v 1 h -1 v 1 h -1 v 1 h -1 v 1 h -1 v 1 h -1 v 1 h -1 v 1 h -2 v 1 h -1 v 1 h -1 v 1 h -1 v 1 h -1 v 1 h -1 v 1 h -2 v 1 h -1 v 1 h -1 v 1 h -1 v 1 h -1 v 1 h -2 v 1 h -1 v 1 h -1 v 1 h -1 v 1 h -1 v 1 h -2 v 1 h -1 v 1 h -1 v 1 h -2 v 1 h -1 v 1 h -2 v 1 h -1 v 1 h -1 v 1 h -2 v 1 h -1 v 1 h -1 v 1 h -2 v 1 h -1 v 1 h -2 v 1 h -1 v 1 h -1 v 1 h -2 v 1 h -1 v 1 h -2 v 1 h -1 v 1 h -2 v 1 h -1 v 1 h -2 v 1 h -2 v 1 h -1 v 1 h -2 v 1 h -2 v 1 h -1 v 1 h -2 v 1 h -1 v 1 h -2 v 1 h -2 v 1 h -1 v 1 h -2 v 1 h -2 v 1 h -1 v 1 h -2 v 1 h -2 v 1 h -2 v 1 h -2 v 1 h -2 v 1 h -2 v 1 h -2 v 1 h -2 v 1 h -2 v 1 h -2 v 1 h -2 v 1 h -2 v 1 h -2 v 1 h -2 v 1 h -2 v 1 h -2 v 1 h -3 v 1 h -2 v 1 h -2 v 1 h -3 v 1 h -2 v 1 h -2 v 1 h -3 v 1 h -2 v 1 h -2 v 1 h -3 v 1 h -3 v 1 h -3 v 1 h -3 v 1 h -3 v 1 h -3 v 1 h -2 v 1 h -3 v 1 h -3 v 1 h -3 v 1 h -3 v 1 h -4 v 1 h -4 v 1 h -4 v 1 h -4 v 1 h -3 v 1 h -4 v 1 h -4 v 1 h -4 v 1 h -5 v 1 h -6 v 1 h -5 v 1 h -6 v 1 h -5 v 1 h -7 v 1 h -9 v 1 h -9 v 1 h -9 v 1 h -17 v 1 h -39 v -1 h -14 v -1 h -12 v -1 h -8 v -1 h -9 v -1 h -6 v -1 h -6 v -1 h -6 v -1 h -5 v -1 h -5 v -1 h -5 v -1 h -4 v -1 h -4 v -1 h -5 v -1 h -3 v -1 h -4 v -1 h -4 v -1 h -3 v -1 h -4 v -1 h -3 v -1 h -3 v -1 h -3 v -1 h -3 v -1 h -3 v -1 h -3 v -1 h -3 v -1 h -3 v -1 h -3 v -1 h -2 v -1 h -3 v -1 h -2 v -1 h -3 v -1 h -2 v -1 h -3 v -1 h -2 v -1 h -3 v -1 h -2 v -1 h -2 v -1 h -2 v -1 h -2 v -1 h -3 v -1 h -2 v -1 h -2 v -1 h -2 v -1 h -2 v -1 h -2 v -1 h -2 v -1 h -2 v -1 h -2 v -1 h -2 v -1 h -2 v -1 h -2 v -1 h -2 v -1 h -1 v -1 h -2 v -1 h -2 v -1 h -2 v -1 h -1 v -1 h -2 v -1 h -2 v -1 h -2 v -1 h -1 v -1 h -2 v -1 h -2 v -1 h -1 v -1 h -2 v -1 h -1 v -1 h -2 v -1 h -1 v -1 h -2 v -1 h -1 v -1 h -2 v -1 h -2 v -1 h -1 v -1 h -2 v -1 h -1 v -1 h -1 v -1 h -2 v -1 h -1 v -1 h -2 v -1 h -1 v -1 h -1 v -1 h -2 v -1 h -1 v -1 h -2 v -1 h -1 v -1 h -1 v -1 h -1 v -1 h -2 v -1 h -1 v -1 h -1 v -1 h -2 v -1 h -1 v -1 h -1 v -1 h -1 v -1 h -2 v -1 h -1 v -1 h -1 v -1 h -1 v -1 h -2 v -1 h -1 v -1 h -1 v -1 h -1 v -1 h -1 v -1 h -1 v -1 h -1 v -1 h -2 v -1 h -1 v -1 h -1 v -1 h -1 v -1 h -1 v -1 h -1 v -1 h -1 v -1 h -1 v -1 h -1 v -1 h -1 v -1 h -1 v -1 h -2 v -1 h -1 v -1 h -1 v -1 h -1 v -1 h -1 v -1 h -1 v -1 h -1 v -1 h -1 v -1 h -1 v -1 h -1 v -1 h -1 v -1 h -1 v -1 h -1 v -1 h -1 v -1 h -1 v -2 h -1 v -1 h -1 v -1 h -1 v -1 h -1 v -1 h -1 v -1 h -1 v -1 h -1 v -1 h -1 v -1 h -1 v -1 h -1 v -1 h -1 v -2 h -1 v -1 h -1 v -1 h -1 v -1 h -1 v -1 h -1 v -1 h -1 v -2 h -1 v -1 h -1 v -1 h -1 v -1 h -1 v -1 h -1 v -2 h -1 v -1 h -1 v -1 h -1 v -1 h -1 v -2 h -1 v -1 h -1 v -1 h -1 v -2 h -1 v -1 h -1 v -1 h -1 v -1 h -1 v -2 h -1 v -1 h -1 v -2 h -1 v -1 h -1 v -1 h -1 v -2 h -1 v -1 h -1 v -2 h -1 v -1 h -1 v -2 h -1 v -1 h -1 v -1 h -1 v -2 h -1 v -1 h -1 v -2 h -1 v -2 h -1 v -1 h -1 v -2 h -1 v -1 h -1 v -2 h -1 v -1 h -1 v -2 h -1 v -2 h -1 v -1 h -1 v -2 h -1 v -2 h -1 v -2 h -1 v -1 h -1 v -2 h -1 v -2 h -1 v -2 h -1 v -1 h -1 v -2 h -1 v -2 h -1 v -2 h -1 v -2 h -1 v -2 h -1 v -2 h -1 v -2 h -1 v -2 h -1 v -2 h -1 v -2 h -1 v -2 h -1 v -2 h -1 v -2 h -1 v -2 h -1 v -3 h -1 v -2 h -1 v -2 h -1 v -3 h -1 v -2 h -1 v -2 h -1 v -3 h -1 v -2 h -1 v -3 h -1 v -2 h -1 v -3 h -1 v -3 h -1 v -2 h -1 v -3 h -1 v -3 h -1 v -3 h -1 v -3 h -1 v -3 h -1 v -3 h -1 v -3 h -1 v -4 h -1 v -3 h -1 v -4 h -1 v -4 h -1 v -3 h -1 v -4 h -1 v -5 h -1 v -4 h -1 v -5 h -1 v -4 h -1 v -5 h -1 v -6 h -1 v -6 h -1 v -6 h -1 v -8 h -1 v -8 h -1 v -10 h -1 v -14 h -1 v -47 h 1 v -17 h 1 v -7 h 1 v -8 h 1 v -8 h 1 v -8 h 1 v -6 h 1 v -5 h 1 v -5 h 1 v -4 h 1 v -5 h 1 v -4 h 1 v -5 h 1 v -5 h 1 v -4 h 1 v -3 h 1 v -3 h 1 v -3 h 1 v -4 h 1 v -3 h 1 v -3 h 1 v -3 h 1 v -4 h 1 v -3 h 1 v -3 h 1 v -3 h 1 v -2 h 1 v -3 h 1 v -2 h 1 v -3 h 1 v -2 h 1 v -3 h 1 v -2 h 1 v -3 h 1 v -2 h 1 v -3 h 1 v -2 h 1 v -3 h 1 v -2 h 1 v -2 h 1 v -2 h 1 v -2 h 1 v -2 h 1 v -2 h 1 v -2 h 1 v -2 h 1 v -2 h 1 v -2 h 1 v -2 h 1 v -2 h 1 v -2 h 1 v -2 h 1 v -2 h 1 v -2 h 1 v -2 h 1 v -2 h 1 v -1 h 1 v -2 h 1 v -1 h 1 v -2 h 1 v -2 h 1 v -1 h 1 v -2 h 1 v -1 h 1 v -2 h 1 v -2 h 1 v -1 h 1 v -2 h 1 v -2 h 1 v -1 h 1 v -2 h 1 v -1 h 1 v -2 h 1 v -2 h 1 v -1 h 1 v -2 h 1 v -1 h 1 v -1 h 1 v -2 h 1 v -1 h 1 v -1 h 1 v -2 h 1 v -1 h 1 v -1 h 1 v -2 h 1 v -1 h 1 v -1 h 1 v -2 h 1 v -1 h 1 v -1 h 1 v -2 h 1 v -1 h 1 v -1 h 1 v -2 h 1 v -1 h 1 v -1 h 1 v -2 h 1 v -1 h 1 v -1 h 1 v -1 h 1 v -1 h 1 v -1 h 1 v -1 h 1 v -1 h 1 v -2 h 1 v -1 h 1 v -1 h 1 v -1 h 1 v -1 h 1 v -1 h 1 v -1 h 1 v -2 h 1 v -1 h 1 v -1 h 1 v -1 h 1 v -1 h 1 v -1 h 1 v -1 h 1 v -1 h 1 v -2 h 1 v -1 h 2 v -1 h 1 v -1 h 1 v -1 h 1 v -1 h 1 v -1 h 1 v -1 h 1 v -1 h 1 v -1 h 1 v -1 h 1 v -1 h 1 v -1 h 1 v -1 h 1 v -1 h 1 v -1 h 1 v -1 h 1 v -1 h 1 v -1 h 1 v -1 h 1 v -1 h 1 v -1 h 1 v -1 h 2 v -1 h 1 v -1 h 1 v -1 h 1 v -1 h 1 v -1 h 1 v -1 h 2 v -1 h 1 v -1 h 1 v -1 h 1 v -1 h 2 v -1 h 1 v -1 h 1 v -1 h 1 v -1 h 2 v -1 h 1 v -1 h 1 v -1 h 1 v -1 h 2 v -1 h 1 v -1 h 1 v -1 h 1 v -1 h 2 v -1 h 1 v -1 h 1 v -1 h 1 v -1 h 2 v -1 h 1 v -1 h 2 v -1 h 1 v -1 h 2 v -1 h 1 v -1 h 2 v -1 h 1 v -1 h 2 v -1 h 1 v -1 h 2 v -1 h 1 v -1 h 2 v -1 h 1 v -1 h 2 v -1 h 1 v -1 h 2 v -1 h 1 v -1 h 2 v -1 h 1 v -1 h 2 v -1 h 2 v -1 h 2 v -1 h 2 v -1 h 2 v -1 h 1 v -1 h 2 v -1 h 2 v -1 h 2 v -1 h 2 v -1 h 1 v -1 h 2 v -1 h 2 v -1 h 2 v -1 h 2 v -1 h 1 v -1 h 2 v -1 h 2 v -1 h 3 v -1 h 2 v -1 h 2 v -1 h 2 v -1 h 3 v -1 h 2 v -1 h 2 v -1 h 3 v -1 h 2 v -1 h 2 v -1 h 2 v -1 h 3 v -1 h 2 v -1 h 2 v -1 h 3 v -1 h 3 v -1 h 3 v -1 h 3 v -1 h 3 v -1 h 3 v -1 h 2 v -1 h 3 v -1 h 3 v -1 h 3 v -1 h 3 v -1 h 3 v -1 h 4 v -1 h 3 v -1 h 4 v -1 h 4 v -1 h 4 v -1 h 4 v -1 h 4 v -1 h 4 v -1 h 5 v -1 h 2 V 932 h -8 v 1 h -6 v 1 h -6 v 1 h -6 v 1 h -6 v 1 h -5 v 1 h -5 v 1 h -5 v 1 h -4 v 1 h -4 v 1 h -5 v 1 h -4 v 1 h -5 v 1 h -4 v 1 h -4 v 1 h -4 v 1 h -3 v 1 h -4 v 1 h -3 v 1 h -4 v 1 h -3 v 1 h -4 v 1 h -3 v 1 h -3 v 1 h -4 v 1 h -3 v 1 h -3 v 1 h -2 v 1 h -3 v 1 h -3 v 1 h -3 v 1 h -3 v 1 h -2 v 1 h -3 v 1 h -3 v 1 h -3 v 1 h -3 v 1 h -2 v 1 h -3 v 1 h -2 v 1 h -3 v 1 h -2 v 1 h -2 v 1 h -3 v 1 h -2 v 1 h -2 v 1 h -3 v 1 h -2 v 1 h -2 v 1 h -3 v 1 h -2 v 1 h -2 v 1 h -2 v 1 h -2 v 1 h -2 v 1 h -2 v 1 h -2 v 1 h -3 v 1 h -2 v 1 h -2 v 1 h -2 v 1 h -2 v 1 h -2 v 1 h -2 v 1 h -2 v 1 h -2 v 1 h -2 v 1 h -2 v 1 h -2 v 1 h -1 v 1 h -2 v 1 h -2 v 1 h -1 v 1 h -2 v 1 h -2 v 1 h -2 v 1 h -1 v 1 h -2 v 1 h -2 v 1 h -2 v 1 h -1 v 1 h -2 v 1 h -2 v 1 h -2 v 1 h -1 v 1 h -2 v 1 h -2 v 1 h -1 v 1 h -2 v 1 h -1 v 1 h -2 v 1 h -1 v 1 h -2 v 1 h -1 v 1 h -2 v 1 h -2 v 1 h -1 v 1 h -2 v 1 h -1 v 1 h -2 v 1 h -1 v 1 h -2 v 1 h -1 v 1 h -2 v 1 h -1 v 1 h -2 v 1 h -1 v 1 h -2 v 1 h -1 v 1 h -1 v 1 h -2 v 1 h -1 v 1 h -1 v 1 h -2 v 1 h -1 v 1 h -1 v 1 h -2 v 1 h -1 v 1 h -1 v 1 h -2 v 1 h -1 v 1 h -1 v 1 h -2 v 1 h -1 v 1 h -1 v 1 h -2 v 1 h -1 v 1 h -1 v 1 h -2 v 1 h -1 v 1 h -1 v 1 h -1 v 1 h -1 v 1 h -2 v 1 h -1 v 1 h -1 v 1 h -1 v 1 h -1 v 1 h -2 v 1 h -1 v 1 h -1 v 1 h -1 v 1 h -1 v 1 h -2 v 1 h -1 v 1 h -1 v 1 h -1 v 1 h -1 v 1 h -2 v 1 h -1 v 1 h -1 v 1 h -1 v 1 h -1 v 1 h -1 v 1 h -1 v 1 h -1 v 1 h -1 v 1 h -1 v 1 h -2 v 1 h -1 v 1 h -1 v 1 h -1 v 1 h -1 v 1 h -1 v 1 h -1 v 1 h -1 v 1 h -1 v 1 h -1 v 1 h -1 v 1 h -1 v 1 h -1 v 1 h -1 v 1 h -1 v 1 h -1 v 1 h -2 v 1 h -1 v 1 h -1 v 2 h -1 v 1 h -1 v 1 h -1 v 1 h -1 v 1 h -1 v 1 h -1 v 1 h -1 v 1 h -1 v 1 h -1 v 1 h -1 v 1 h -1 v 1 h -1 v 1 h -1 v 1 h -1 v 1 h -1 v 1 h -1 v 1 h -1 v 1 h -1 v 2 h -1 v 1 h -1 v 1 h -1 v 1 h -1 v 1 h -1 v 1 h -1 v 1 h -1 v 1 h -1 v 1 h -1 v 2 h -1 v 1 h -1 v 1 h -1 v 1 h -1 v 1 h -1 v 2 h -1 v 1 h -1 v 1 h -1 v 1 h -1 v 1 h -1 v 1 h -1 v 2 h -1 v 1 h -1 v 1 h -1 v 1 h -1 v 1 h -1 v 2 h -1 v 1 h -1 v 1 h -1 v 1 h -1 v 1 h -1 v 2 h -1 v 1 h -1 v 1 h -1 v 2 h -1 v 1 h -1 v 1 h -1 v 2 h -1 v 1 h -1 v 1 h -1 v 2 h -1 v 1 h -1 v 1 h -1 v 2 h -1 v 1 h -1 v 1 h -1 v 2 h -1 v 1 h -1 v 1 h -1 v 2 h -1 v 1 h -1 v 2 h -1 v 1 h -1 v 2 h -1 v 1 h -1 v 2 h -1 v 1 h -1 v 2 h -1 v 1 h -1 v 2 h -1 v 1 h -1 v 2 h -1 v 1 h -1 v 2 h -1 v 1 h -1 v 2 h -1 v 1 h -1 v 2 h -1 v 1 h -1 v 2 h -1 v 1 h -1 v 2 h -1 v 1 h -1 v 2 h -1 v 2 h -1 v 1 h -1 v 2 h -1 v 2 h -1 v 1 h -1 v 2 h -1 v 2 h -1 v 1 h -1 v 2 h -1 v 2 h -1 v 1 h -1 v 2 h -1 v 2 h -1 v 2 h -1 v -3 h -1 v -6 h -1 v -4 h -1 v -4 h -1 v -4 h -1 v -4 h -1 v -4 h -1 v -5 h -1 v -3 h -1 v -3 h -1 v -3 h -1 v -3 h -1 v -3 h -1 v -3 h -1 v -3 h -1 v -3 h -1 v -4 h -1 v -3 h -1 v -3 h -1 v -2 h -1 v -3 h -1 v -2 h -1 v -2 h -1 v -3 h -1 v -2 h -1 v -2 h -1 v -2 h -1 v -3 h -1 v -2 h -1 v -2 h -1 v -3 h -1 v -2 h -1 v -2 h -1 v -2 h -1 v -2 h -1 v -2 h -1 v -2 h -1 v -2 h -1 v -1 h -1 v -2 h -1 v -2 h -1 v -2 h -1 v -2 h -1 v -1 h -1 v -2 h -1 v -2 h -1 v -2 h -1 v -2 h -1 v -1 h -1 v -2 h -1 v -2 h -1 v -1 h -1 v -2 h -1 v -1 h -1 v -2 h -1 v -1 h -1 v -2 h -1 v -1 h -1 v -2 h -1 v -1 h -1 v -1 h -1 v -2 h -1 v -1 h -1 v -2 h -1 v -1 h -1 v -2 h -1 v -1 h -1 v -2 h -1 v -1 h -1 v -2 h -1 v -1 h -1 v -1 h -1 v -1 h -1 v -1 h -1 v -2 h -1 v -1 h -1 v -1 h -1 v -1 h -1 v -1 h -1 v -2 h -1 v -1 h -1 v -1 h -1 v -1 h -1 v -1 h -1 v -2 h -1 v -1 h -1 v -1 h -1 v -1 h -1 v -1 h -1 v -2 h -1 v -1 h -1 v -1 h -1 v -1 h -1 v -1 h -1 v -1 h -1 v -1 h -1 v -1 h -1 v -1 h -1 v -1 h -1 v -1 h -1 v -1 h -1 v -1 h -1 v -1 h -1 v -1 h -1 v -1 h -1 v -1 h -1 v -1 h -1 v -1 h -1 v -1 h -1 v -1 h -1 v -1 h -1 v -1 h -1 v -1 h -1 v -1 h -1 v -1 h -1 v -1 h -1 v -1 h -2 v -1 h -1 v -1 h -1 v -1 h -1 v -1 h -1 v -1 h -2 v -1 h -1 v -1 h -1 v -1 h -1 v -1 h -1 v -1 h -2 v -1 h -1 v -1 h -1 v -1 h -1 v -1 h -2 v -1 h -1 v -1 h -1 v -1 h -1 v -1 h -1 v -1 h -2 v -1 h -1 v -1 h -1 v -1 h -1 v -1 h -2 v -1 h -1 v -1 h -2 v -1 h -1 v -1 h -2 v -1 h -1 v -1 h -2 v -1 h -1 v -1 h -2 v -1 h -1 v -1 h -2 v -1 h -1 v -1 h -2 v -1 h -1 v -1 h -2 v -1 h -1 v -1 h -1 v -1 h -2 v -1 h -1 v -1 h -2 v -1 h -2 v -1 h -2 v -1 h -2 v -1 h -1 v -1 h -2 v -1 h -2 v -1 h -2 v -1 h -1 v -1 h -2 v -1 h -2 v -1 h -2 v -1 h -2 v -1 h -1 v -1 h -2 v -1 h -2 v -1 h -2 v -1 h -2 v -1 h -2 v -1 h -2 v -1 h -2 v -1 h -3 v -1 h -2 v -1 h -2 v -1 h -2 v -1 h -2 v -1 h -3 v -1 h -2 v -1 h -2 v -1 h -2 v -1 h -3 v -1 h -2 v -1 h -2 v -1 h -3 v -1 h -3 v -1 h -3 v -1 h -3 v -1 h -2 v -1 h -3 v -1 h -3 v -1 h -3 v -1 h -3 v -1 h -2 v -1 h -3 v -1 h -3 v -1 h -4 v -1 h -4 v -1 h -4 v -1 h -3 v -1 h -4 v -1 h -4 v -1 h -3 v -1 h -4 v -1 h -4 v -1 h -5 v -1 h -5 v -1 h -5 v -1 h -6 v -1 h -5 v -1 h -5 v -1 h -6 v -1 h -7 v -1 h -9 v -1 h -9 v -1 h -9 v -1 h -12 v -1 h -21 v -1 z m 1,196 v -1 h 27 v 1 h 14 v 1 h 8 v 1 h 8 v 1 h 6 v 1 h 5 v 1 h 5 v 1 h 5 v 1 h 4 v 1 h 4 v 1 h 3 v 1 h 4 v 1 h 3 v 1 h 3 v 1 h 4 v 1 h 3 v 1 h 2 v 1 h 3 v 1 h 2 v 1 h 3 v 1 h 2 v 1 h 3 v 1 h 2 v 1 h 3 v 1 h 2 v 1 h 2 v 1 h 2 v 1 h 2 v 1 h 2 v 1 h 2 v 1 h 2 v 1 h 2 v 1 h 2 v 1 h 2 v 1 h 1 v 1 h 2 v 1 h 2 v 1 h 1 v 1 h 2 v 1 h 1 v 1 h 2 v 1 h 2 v 1 h 1 v 1 h 2 v 1 h 1 v 1 h 2 v 1 h 1 v 1 h 1 v 1 h 2 v 1 h 1 v 1 h 1 v 1 h 2 v 1 h 1 v 1 h 1 v 1 h 1 v 1 h 2 v 1 h 1 v 1 h 1 v 1 h 1 v 1 h 2 v 1 h 1 v 1 h 1 v 1 h 1 v 1 h 1 v 1 h 1 v 1 h 1 v 1 h 1 v 1 h 1 v 1 h 1 v 1 h 1 v 1 h 1 v 1 h 1 v 1 h 1 v 1 h 1 v 1 h 1 v 1 h 1 v 1 h 1 v 1 h 1 v 1 h 1 v 2 h 1 v 1 h 1 v 1 h 1 v 1 h 1 v 1 h 1 v 1 h 1 v 2 h 1 v 1 h 1 v 1 h 1 v 1 h 1 v 2 h 1 v 1 h 1 v 2 h 1 v 1 h 1 v 2 h 1 v 1 h 1 v 1 h 1 v 2 h 1 v 1 h 1 v 2 h 1 v 1 h 1 v 2 h 1 v 2 h 1 v 2 h 1 v 2 h 1 v 2 h 1 v 1 h 1 v 2 h 1 v 2 h 1 v 2 h 1 v 2 h 1 v 2 h 1 v 3 h 1 v 2 h 1 v 3 h 1 v 2 h 1 v 3 h 1 v 2 h 1 v 3 h 1 v 3 h 1 v 4 h 1 v 3 h 1 v 4 h 1 v 3 h 1 v 5 h 1 v 6 h 1 v 6 h 1 v 6 h 1 v 10 h 1 v 29 h -1 v 11 h -1 v 6 h -1 v 6 h -1 v 6 h -1 v 4 h -1 v 3 h -1 v 4 h -1 v 3 h -1 v 4 h -1 v 3 h -1 v 3 h -1 v 2 h -1 v 3 h -1 v 2 h -1 v 3 h -1 v 2 h -1 v 2 h -1 v 3 h -1 v 2 h -1 v 2 h -1 v 2 h -1 v 1 h -1 v 2 h -1 v 2 h -1 v 2 h -1 v 2 h -1 v 1 h -1 v 2 h -1 v 2 h -1 v 1 h -1 v 2 h -1 v 1 h -1 v 1 h -1 v 2 h -1 v 1 h -1 v 2 h -1 v 1 h -1 v 2 h -1 v 1 h -1 v 1 h -1 v 2 h -1 v 1 h -1 v 1 h -1 v 1 h -1 v 1 h -1 v 1 h -1 v 1 h -1 v 2 h -1 v 1 h -1 v 1 h -1 v 1 h -1 v 1 h -1 v 1 h -1 v 1 h -1 v 1 h -1 v 1 h -1 v 1 h -1 v 1 h -1 v 1 h -1 v 1 h -1 v 1 h -1 v 1 h -1 v 1 h -1 v 1 h -1 v 1 h -1 v 1 h -2 v 1 h -1 v 1 h -1 v 1 h -1 v 1 h -1 v 1 h -2 v 1 h -1 v 1 h -1 v 1 h -2 v 1 h -1 v 1 h -1 v 1 h -2 v 1 h -1 v 1 h -1 v 1 h -2 v 1 h -1 v 1 h -2 v 1 h -1 v 1 h -2 v 1 h -1 v 1 h -2 v 1 h -2 v 1 h -1 v 1 h -2 v 1 h -2 v 1 h -1 v 1 h -2 v 1 h -2 v 1 h -2 v 1 h -2 v 1 h -2 v 1 h -2 v 1 h -2 v 1 h -2 v 1 h -2 v 1 h -2 v 1 h -2 v 1 h -3 v 1 h -2 v 1 h -3 v 1 h -2 v 1 h -3 v 1 h -3 v 1 h -2 v 1 h -3 v 1 h -3 v 1 h -4 v 1 h -3 v 1 h -3 v 1 h -4 v 1 h -3 v 1 h -5 v 1 h -5 v 1 h -4 v 1 h -5 v 1 h -5 v 1 h -9 v 1 h -8 v 1 h -11 v 1 h -40 v -1 h -11 v -1 h -8 v -1 h -8 v -1 h -5 v -1 h -6 v -1 h -5 v -1 h -5 v -1 h -4 v -1 h -3 v -1 h -4 v -1 h -3 v -1 h -4 v -1 h -3 v -1 h -4 v -1 h -2 v -1 h -3 v -1 h -2 v -1 h -3 v -1 h -3 v -1 h -2 v -1 h -3 v -1 h -2 v -1 h -2 v -1 h -2 v -1 h -2 v -1 h -3 v -1 h -2 v -1 h -2 v -1 h -2 v -1 h -2 v -1 h -2 v -1 h -2 v -1 h -1 v -1 h -2 v -1 h -1 v -1 h -2 v -1 h -2 v -1 h -1 v -1 h -2 v -1 h -2 v -1 h -1 v -1 h -2 v -1 h -1 v -1 h -2 v -1 h -1 v -1 h -1 v -1 h -2 v -1 h -1 v -1 h -1 v -1 h -2 v -1 h -1 v -1 h -1 v -1 h -2 v -1 h -1 v -1 h -1 v -1 h -1 v -1 h -2 v -1 h -1 v -1 h -1 v -1 h -1 v -1 h -1 v -1 h -1 v -1 h -1 v -1 h -1 v -1 h -1 v -1 h -1 v -1 h -1 v -1 h -1 v -1 h -2 v -1 h -1 v -2 h -1 v -1 h -1 v -1 h -1 v -1 h -1 v -1 h -1 v -1 h -1 v -1 h -1 v -2 h -1 v -1 h -1 v -1 h -1 v -1 h -1 v -1 h -1 v -1 h -1 v -2 h -1 v -1 h -1 v -2 h -1 v -1 h -1 v -1 h -1 v -2 h -1 v -1 h -1 v -2 h -1 v -1 h -1 v -2 h -1 v -1 h -1 v -1 h -1 v -2 h -1 v -2 h -1 v -2 h -1 v -2 h -1 v -2 h -1 v -1 h -1 v -2 h -1 v -2 h -1 v -2 h -1 v -2 h -1 v -2 h -1 v -3 h -1 v -2 h -1 v -3 h -1 v -2 h -1 v -3 h -1 v -2 h -1 v -2 h -1 v -4 h -1 v -4 h -1 v -3 h -1 v -4 h -1 v -3 h -1 v -4 h -1 v -6 h -1 v -6 h -1 v -6 h -1 v -11 h -1 v -31 h 1 v -10 h 1 v -6 h 1 v -6 h 1 v -6 h 1 v -4 h 1 v -4 h 1 v -3 h 1 v -4 h 1 v -4 h 1 v -3 h 1 v -3 h 1 v -2 h 1 v -2 h 1 v -3 h 1 v -2 h 1 v -3 h 1 v -2 h 1 v -3 h 1 v -2 h 1 v -2 h 1 v -1 h 1 v -2 h 1 v -2 h 1 v -2 h 1 v -2 h 1 v -2 h 1 v -1 h 1 v -2 h 1 v -2 h 1 v -1 h 1 v -2 h 1 v -1 h 1 v -2 h 1 v -1 h 1 v -1 h 1 v -2 h 1 v -1 h 1 v -2 h 1 v -1 h 1 v -2 h 1 v -1 h 1 v -1 h 1 v -1 h 1 v -1 h 1 v -2 h 1 v -1 h 1 v -1 h 1 v -1 h 1 v -1 h 1 v -1 h 1 v -1 h 1 v -2 h 1 v -1 h 1 v -1 h 1 v -1 h 1 v -1 h 1 v -1 h 1 v -1 h 1 v -1 h 1 v -1 h 1 v -1 h 2 v -1 h 1 v -1 h 1 v -1 h 1 v -1 h 1 v -1 h 1 v -1 h 1 v -1 h 1 v -1 h 1 v -1 h 2 v -1 h 1 v -1 h 1 v -1 h 2 v -1 h 1 v -1 h 1 v -1 h 1 v -1 h 2 v -1 h 1 v -1 h 1 v -1 h 2 v -1 h 1 v -1 h 2 v -1 h 1 v -1 h 2 v -1 h 1 v -1 h 2 v -1 h 2 v -1 h 1 v -1 h 2 v -1 h 1 v -1 h 2 v -1 h 2 v -1 h 1 v -1 h 2 v -1 h 2 v -1 h 2 v -1 h 2 v -1 h 2 v -1 h 2 v -1 h 2 v -1 h 2 v -1 h 2 v -1 h 3 v -1 h 2 v -1 h 3 v -1 h 2 v -1 h 3 v -1 h 2 v -1 h 3 v -1 h 2 v -1 h 4 v -1 h 3 v -1 h 3 v -1 h 4 v -1 h 3 v -1 h 3 v -1 h 4 v -1 h 5 v -1 h 5 v -1 h 4 v -1 h 5 v -1 h 6 v -1 h 9 v -1 h 8 v -1 z m -6,579 v -1 h 42 v 1 h 9 v 1 h 7 v 1 h 5 v 1 h 6 v 1 h 5 v 1 h 3 v 1 h 4 v 1 h 4 v 1 h 3 v 1 h 3 v 1 h 3 v 1 h 3 v 1 h 2 v 1 h 3 v 1 h 3 v 1 h 2 v 1 h 2 v 1 h 2 v 1 h 2 v 1 h 2 v 1 h 3 v 1 h 2 v 1 h 1 v 1 h 2 v 1 h 2 v 1 h 1 v 1 h 2 v 1 h 2 v 1 h 1 v 1 h 2 v 1 h 2 v 1 h 1 v 1 h 1 v 1 h 2 v 1 h 1 v 1 h 1 v 1 h 2 v 1 h 1 v 1 h 1 v 1 h 2 v 1 h 1 v 1 h 1 v 1 h 1 v 1 h 1 v 1 h 1 v 1 h 1 v 1 h 1 v 1 h 1 v 1 h 2 v 1 h 1 v 1 h 1 v 2 h 1 v 1 h 1 v 1 h 1 v 1 h 1 v 1 h 1 v 1 h 1 v 1 h 1 v 2 h 1 v 1 h 1 v 1 h 1 v 1 h 1 v 2 h 1 v 1 h 1 v 2 h 1 v 1 h 1 v 1 h 1 v 2 h 1 v 1 h 1 v 2 h 1 v 2 h 1 v 1 h 1 v 2 h 1 v 2 h 1 v 2 h 1 v 2 h 1 v 2 h 1 v 2 h 1 v 2 h 1 v 3 h 1 v 2 h 1 v 3 h 1 v 2 h 1 v 3 h 1 v 4 h 1 v 3 h 1 v 4 h 1 v 4 h 1 v 5 h 1 v 7 h 1 v 6 h 1 v 35 h -1 v 6 h -1 v 6 h -1 v 6 h -1 v 3 h -1 v 4 h -1 v 3 h -1 v 4 h -1 v 2 h -1 v 3 h -1 v 2 h -1 v 3 h -1 v 2 h -1 v 3 h -1 v 2 h -1 v 1 h -1 v 2 h -1 v 2 h -1 v 2 h -1 v 2 h -1 v 1 h -1 v 2 h -1 v 2 h -1 v 1 h -1 v 2 h -1 v 1 h -1 v 1 h -1 v 2 h -1 v 1 h -1 v 2 h -1 v 1 h -1 v 1 h -1 v 1 h -1 v 2 h -1 v 1 h -1 v 1 h -1 v 1 h -1 v 1 h -1 v 1 h -1 v 1 h -1 v 2 h -1 v 1 h -2 v 1 h -1 v 1 h -1 v 1 h -1 v 1 h -1 v 1 h -1 v 1 h -1 v 1 h -1 v 1 h -1 v 1 h -1 v 1 h -1 v 1 h -2 v 1 h -1 v 1 h -1 v 1 h -2 v 1 h -1 v 1 h -1 v 1 h -2 v 1 h -1 v 1 h -1 v 1 h -2 v 1 h -2 v 1 h -1 v 1 h -2 v 1 h -1 v 1 h -2 v 1 h -2 v 1 h -1 v 1 h -2 v 1 h -2 v 1 h -2 v 1 h -2 v 1 h -2 v 1 h -2 v 1 h -2 v 1 h -2 v 1 h -3 v 1 h -2 v 1 h -3 v 1 h -2 v 1 h -3 v 1 h -3 v 1 h -3 v 1 h -3 v 1 h -4 v 1 h -3 v 1 h -4 v 1 h -5 v 1 h -5 v 1 h -4 v 1 h -8 v 1 h -8 v 1 h -15 v 1 h -13 v -1 h -14 v -1 h -8 v -1 h -8 v -1 h -5 v -1 h -5 v -1 h -4 v -1 h -4 v -1 h -4 v -1 h -3 v -1 h -4 v -1 h -3 v -1 h -3 v -1 h -2 v -1 h -3 v -1 h -2 v -1 h -3 v -1 h -3 v -1 h -2 v -1 h -2 v -1 h -2 v -1 h -2 v -1 h -2 v -1 h -2 v -1 h -2 v -1 h -2 v -1 h -1 v -1 h -2 v -1 h -2 v -1 h -1 v -1 h -2 v -1 h -2 v -1 h -1 v -1 h -2 v -1 h -1 v -1 h -2 v -1 h -1 v -1 h -1 v -1 h -2 v -1 h -1 v -1 h -1 v -1 h -2 v -1 h -1 v -1 h -1 v -1 h -2 v -1 h -1 v -1 h -1 v -1 h -1 v -1 h -1 v -1 h -1 v -1 h -1 v -1 h -1 v -1 h -1 v -1 h -1 v -1 h -1 v -1 h -1 v -1 h -1 v -1 h -1 v -1 h -1 v -1 h -1 v -1 h -1 v -1 h -1 v -1 h -1 v -2 h -1 v -1 h -1 v -1 h -1 v -1 h -1 v -1 h -1 v -2 h -1 v -1 h -1 v -2 h -1 v -1 h -1 v -1 h -1 v -2 h -1 v -1 h -1 v -2 h -1 v -2 h -1 v -1 h -1 v -2 h -1 v -2 h -1 v -2 h -1 v -1 h -1 v -2 h -1 v -2 h -1 v -3 h -1 v -2 h -1 v -2 h -1 v -3 h -1 v -2 h -1 v -3 h -1 v -3 h -1 v -4 h -1 v -3 h -1 v -4 h -1 v -5 h -1 v -6 h -1 v -5 h -1 v -13 h -1 v -9 h 1 v -14 h 1 v -6 h 1 v -6 h 1 v -6 h 1 v -3 h 1 v -4 h 1 v -3 h 1 v -4 h 1 v -3 h 1 v -2 h 1 v -2 h 1 v -3 h 1 v -2 h 1 v -3 h 1 v -2 h 1 v -2 h 1 v -2 h 1 v -1 h 1 v -2 h 1 v -2 h 1 v -2 h 1 v -2 h 1 v -1 h 1 v -2 h 1 v -1 h 1 v -1 h 1 v -2 h 1 v -1 h 1 v -2 h 1 v -1 h 1 v -1 h 1 v -2 h 1 v -1 h 1 v -1 h 1 v -1 h 1 v -1 h 1 v -1 h 1 v -1 h 1 v -2 h 1 v -1 h 1 v -1 h 1 v -1 h 1 v -1 h 1 v -1 h 1 v -1 h 1 v -1 h 2 v -1 h 1 v -1 h 1 v -1 h 1 v -1 h 1 v -1 h 1 v -1 h 1 v -1 h 1 v -1 h 2 v -1 h 1 v -1 h 2 v -1 h 1 v -1 h 1 v -1 h 2 v -1 h 1 v -1 h 1 v -1 h 2 v -1 h 1 v -1 h 2 v -1 h 2 v -1 h 1 v -1 h 2 v -1 h 2 v -1 h 2 v -1 h 1 v -1 h 2 v -1 h 2 v -1 h 2 v -1 h 2 v -1 h 3 v -1 h 2 v -1 h 2 v -1 h 2 v -1 h 3 v -1 h 3 v -1 h 2 v -1 h 3 v -1 h 3 v -1 h 3 v -1 h 4 v -1 h 3 v -1 h 4 v -1 h 3 v -1 h 6 v -1 h 5 v -1 h 5 v -1 h 8 v -1"
               style="fill:url(#linearGradient86);fill-opacity:1;fill-rule:nonzero;stroke:none"
               id="path88" />
          </g>
        </g>
      </g>
      <path
         d="m 1446.43,1592.76 -29.66,-26.03 v 24.11 l 29.66,25.61 h 21.77 v -151.92 h -21.77 v 128.23"
         style="fill:#636c73;fill-opacity:1;fill-rule:nonzero;stroke:none"
         id="path90" />
      <path
         d="m 1629.16,1571.86 c 0,16.42 -9.18,26.45 -23.06,26.45 -13.65,0 -23.03,-10.03 -23.03,-26.45 0,-14.94 8.53,-26.25 23.03,-26.25 13.88,0 23.06,10.03 23.06,26.25 z m -14.09,-41.19 c -4.05,-2.35 -9.18,-3.19 -14.07,-3.19 -21.77,0 -39.7,17.49 -39.7,43.95 0,27.94 18.36,46.3 44.8,46.3 26.25,0 44.81,-17.29 44.81,-45.45 0,-10.45 -2.56,-20.06 -10.44,-36.28 l -35.22,-71.47 h -23.47 l 33.29,66.14"
         style="fill:#636c73;fill-opacity:1;fill-rule:nonzero;stroke:none"
         id="path92" />
      <path
         d="m 1774.32,1487.36 h -61.44 v 20.28 l 53.54,108.81 h 23.47 l -53.33,-108.81 h 37.76 v 35.41 h 21.13 v -35.41 h 16.21 v -20.28 h -16.21 v -22.83 h -21.13 v 22.83"
         style="fill:#636c73;fill-opacity:1;fill-rule:nonzero;stroke:none"
         id="path94" />
      <path
         d="m 1886.85,1474.99 c -8.12,8.11 -10.67,18.13 -11.52,29.01 h 21.75 c 1.72,-13.43 8.55,-21.12 22.2,-21.12 6.4,0 11.94,2.14 15.78,5.98 6.41,6.4 7.26,16.42 7.26,26.66 0,18.14 -4.69,31.59 -22.19,31.59 -12.38,0 -19.21,-6.2 -21.56,-13.66 h -19.84 v 83 h 81.93 v -19.42 h -62.29 v -40.11 c 5.12,5.33 14.08,8.75 25.17,8.75 11.95,0 21.12,-3.63 27.31,-9.82 11.52,-11.53 13.24,-26.03 13.24,-40.33 0,-16.21 -1.72,-29.23 -12.81,-40.32 -6.83,-6.83 -17.28,-11.94 -32,-11.94 -14.5,0 -25.81,5.11 -32.43,11.73"
         style="fill:#636c73;fill-opacity:1;fill-rule:nonzero;stroke:none"
         id="path96" />
      <path
         d="m 2188.87,1513.6 h -62.3 v 20.28 h 62.3 v -20.28"
         style="fill:#636c73;fill-opacity:1;fill-rule:nonzero;stroke:none"
         id="path98" />
      <path
         d="m 2353.29,1483.95 58.46,71.05 c 5.75,7.04 8.09,12.59 8.09,20.27 0,13.65 -8.09,23.04 -22.18,23.04 -11.52,0 -22.4,-6.4 -22.4,-23.47 h -21.76 c 0,25.82 18.34,42.89 44.16,42.89 26.04,0 43.95,-16.43 43.95,-42.68 0,-13.44 -4.9,-21.34 -14.3,-32.85 l -47.56,-58.25 h 61.86 v -19.42 h -88.32 v 19.42"
         style="fill:#636c73;fill-opacity:1;fill-rule:nonzero;stroke:none"
         id="path100" />
      <path
         d="m 2575.26,1507.42 v 66.13 c 0,14.52 -8.32,24.76 -22.19,24.76 -13.65,0 -21.97,-10.24 -21.97,-24.76 v -66.13 c 0,-14.51 8.32,-24.75 21.97,-24.75 13.87,0 22.19,10.24 22.19,24.75 z m -65.93,-0.65 v 67.43 c 0,27.1 19.63,43.53 43.74,43.53 24.33,0 43.96,-16.43 43.96,-43.53 v -67.43 c 0,-27.09 -19.63,-43.51 -43.96,-43.51 -24.11,0 -43.74,16.42 -43.74,43.51"
         style="fill:#636c73;fill-opacity:1;fill-rule:nonzero;stroke:none"
         id="path102" />
      <path
         d="m 2666.24,1483.95 58.46,71.05 c 5.75,7.04 8.1,12.59 8.1,20.27 0,13.65 -8.1,23.04 -22.19,23.04 -11.52,0 -22.39,-6.4 -22.39,-23.47 h -21.77 c 0,25.82 18.34,42.89 44.16,42.89 26.04,0 43.95,-16.43 43.95,-42.68 0,-13.44 -4.9,-21.34 -14.29,-32.85 l -47.57,-58.25 h 61.86 v -19.42 h -88.32 v 19.42"
         style="fill:#636c73;fill-opacity:1;fill-rule:nonzero;stroke:none"
         id="path104" />
      <path
         d="m 2834.24,1474.99 c -8.12,8.11 -10.67,18.13 -11.52,29.01 h 21.75 c 1.72,-13.43 8.55,-21.12 22.2,-21.12 6.39,0 11.94,2.14 15.77,5.98 6.42,6.4 7.27,16.42 7.27,26.66 0,18.14 -4.69,31.59 -22.19,31.59 -12.39,0 -19.21,-6.2 -21.56,-13.66 h -19.84 v 83 h 81.93 v -19.42 h -62.3 v -40.11 c 5.13,5.33 14.09,8.75 25.18,8.75 11.95,0 21.12,-3.63 27.31,-9.82 11.51,-11.53 13.23,-26.03 13.23,-40.33 0,-16.21 -1.72,-29.23 -12.8,-40.32 -6.83,-6.83 -17.28,-11.94 -32,-11.94 -14.51,0 -25.82,5.11 -32.43,11.73"
         style="fill:#636c73;fill-opacity:1;fill-rule:nonzero;stroke:none"
         id="path106" />
    </g>
  </g>
</svg>
