<svg id="Layer_1" data-name="Layer 1" xmlns="http://www.w3.org/2000/svg" xmlns:xlink="http://www.w3.org/1999/xlink" viewBox="0 0 516.8 198.5"><defs><style>.cls-1{fill:none;}.cls-2{clip-path:url(#clip-path);}.cls-3{fill:#fff;}.cls-4{fill:#d70a32;}.cls-5{fill:#73787d;}</style><clipPath id="clip-path" transform="translate(-55.2 -33.7)"><rect class="cls-1" width="623.2" height="255.12"/></clipPath></defs><title>1_1_1_MOLINS_RGB</title><g class="cls-2"><path class="cls-3" d="M542.1,33.7H55.2V152.4c0,33,32.2,33.4,33.5,33.4H572V68.5c0-33.9-29.6-34.9-29.9-34.9" transform="translate(-55.2 -33.7)"/><path class="cls-4" d="M548.5,118.7c6.8-10.6,11.1-19.3,16.5-36.5,0.6-1.9,6.2-20.7-2.4-33-7.3-10.4-17.9-11.3-24.9-11.3h-386A166.1,166.1,0,0,0,78.6,101c-6.8,10.6-11.1,19.3-16.5,36.5-0.6,1.9-6,19.7,2.2,31.6,6.8,9.8,18.6,12.4,24.1,12.4H476.1a166.1,166.1,0,0,0,72.4-62.8" transform="translate(-55.2 -33.7)"/><path class="cls-5" d="M101.4,225.5a4,4,0,0,1-2.3-2.5,6.1,6.1,0,0,1-5,2.3c-3.5,0-5.7-1.8-5.7-5.1s3.3-6.2,8.9-6.2h1.2v-1.2c0-2.1-.3-3.5-2.7-3.5a9.7,9.7,0,0,0-5.4,2L89,209a13.8,13.8,0,0,1,7.4-2.3c2.6,0,4.4.9,5.1,2.8a8,8,0,0,1,.4,3.1c0,1.3-.1,4-0.1,6.5s0.1,3.4,1.4,4.2Zm-4-9.4c-2.4,0-3.9.5-4.6,1.3a3.4,3.4,0,0,0-.9,2.6c0,1.9,1,3,2.8,3a4.4,4.4,0,0,0,3.7-2.3v-4.5H97.5" transform="translate(-55.2 -33.7)"/><path class="cls-5" d="M124.8,211.5a4.5,4.5,0,0,0-2.8-1.4c-2.1,0-3,1.8-3,6,0,2.3.3,3.7,0.9,4.5a2.7,2.7,0,0,0,2.1,1,4.8,4.8,0,0,0,3.2-1.5l0.3-.2,2.1,2.8a7.4,7.4,0,0,1-1.6,1.3,8.4,8.4,0,0,1-4.4,1.1c-4.9,0-7.8-3.4-7.8-9.2,0-4.1,1.6-6.9,3.7-8.3a8.5,8.5,0,0,1,4.4-1.3,7.7,7.7,0,0,1,3.5.8,8,8,0,0,1,1.8,1.3Z" transform="translate(-55.2 -33.7)"/><path class="cls-5" d="M143.1,209.2c1.4,1.7,2.1,3.6,2.1,6.5s-0.7,5.2-2.2,6.9a7.3,7.3,0,0,1-5.9,2.5c-4.9,0-8.1-3.6-8.1-9.3s3.2-9.4,8.1-9.4a7.5,7.5,0,0,1,6.1,2.7m-8.4,2.6a17,17,0,0,0,.1,8.5,2.6,2.6,0,0,0,2.4,1.5c2,0,2.9-1.8,2.9-6.1,0-2.4-.3-4-0.9-4.8a2.6,2.6,0,0,0-4.4.9" transform="translate(-55.2 -33.7)"/><path class="cls-5" d="M162.7,222.8a10.3,10.3,0,0,1-6.8,2.5c-5.1,0-8.5-3.6-8.5-9.3,0-3.2.7-5.4,2.2-7.1a7,7,0,0,1,5.6-2.4,7.3,7.3,0,0,1,5.2,1.9c1.6,1.7,2.4,4.1,2.4,7.8v1.1H152.6c0,2.8,1.4,4.3,3.8,4.3a7,7,0,0,0,4.6-1.8Zm-4.7-8.9v-0.2a4.6,4.6,0,0,0-.6-2.7,2.3,2.3,0,0,0-2.1-1c-1.8,0-2.8,1.4-2.8,3.9h5.4Z" transform="translate(-55.2 -33.7)"/><path class="cls-5" d="M177.3,211.2a9.5,9.5,0,0,0-4.4-1.3c-1.4,0-2.3.7-2.3,1.8s0.6,1.4,2.2,1.8L175,214c2.2,0.6,2.9,1.2,3.6,2a4.7,4.7,0,0,1,1,3c0,3.7-3.1,6.2-7.7,6.2a15.9,15.9,0,0,1-7.2-2.1l1.7-3.4a13.1,13.1,0,0,0,5.9,2,2.2,2.2,0,0,0,2.4-2c0-1.2-.9-1.9-2.8-2.2l-2.1-.4a6.3,6.3,0,0,1-3.3-1.8,5.4,5.4,0,0,1-1-3.2c0-3.5,2.8-5.8,6.9-5.8a13.5,13.5,0,0,1,6.4,1.7Z" transform="translate(-55.2 -33.7)"/><path class="cls-5" d="M188.3,201.9a2.9,2.9,0,1,1-5.8,0,2.9,2.9,0,0,1,2.9-2.9,2.9,2.9,0,0,1,2.8,2.9m-0.6,4.5v18.3h-4.7V207.2Z" transform="translate(-55.2 -33.7)"/><path class="cls-5" d="M194.8,207.5a12.2,12.2,0,0,1,4.9-1.1c3,0,5.1,1.1,5.8,3.1a8.3,8.3,0,0,1,.3,3.2v6.3c0,1.9.3,2.7,1.7,3.7l-2.5,2.9a5,5,0,0,1-2.5-2.2l-1.1.9a6.2,6.2,0,0,1-3.6,1c-4,0-6.2-2-6.2-5.6s2.9-6.2,8.6-6.2h1.1V213c0-2-.4-2.7-2.1-2.7a9.9,9.9,0,0,0-5.2,2l-2-3.4a17.2,17.2,0,0,1,2.9-1.5m6.1,9.4c-3.3,0-4.4.6-4.4,2.7a2.1,2.1,0,0,0,2.1,2.3,3.4,3.4,0,0,0,2.5-1.2v-3.9h-0.2Z" transform="translate(-55.2 -33.7)"/><path class="cls-5" d="M225.1,225.1a6.4,6.4,0,0,1-5.6-2.6,10.6,10.6,0,0,1-1.7-6.3c0-4,1.3-6.2,2.9-7.7a6.9,6.9,0,0,1,9.3.1l-1.7,2.2a4.3,4.3,0,0,0-3.1-1.4,3.4,3.4,0,0,0-3.1,1.9,12.4,12.4,0,0,0-.8,5.4c0,2.4.5,4.1,1.4,5a3.4,3.4,0,0,0,2.5,1.1,4.9,4.9,0,0,0,3.6-1.8l1.6,2a6.9,6.9,0,0,1-5.4,2.3" transform="translate(-55.2 -33.7)"/><path class="cls-5" d="M240.7,225.3c-4.7,0-7.6-3.6-7.6-9.3s2.9-9.2,7.5-9.2,7.7,4.1,7.7,9.4-3,9.1-7.6,9.1m-0.1-16c-2.8,0-4,2-4,6.4s1.4,7.1,4.1,7.1,4-1.9,4-6.5-1.6-7.1-4.1-7.1" transform="translate(-55.2 -33.7)"/><path class="cls-5" d="M271.8,224.8V212.2c0-2-.6-2.7-2.1-2.7s-2.8,1-4.1,2.4v12.9h-3.2V212.3c0-2-.6-2.7-2.2-2.7a6,6,0,0,0-4,2v13.2h-3.2V211.9a9.5,9.5,0,0,0-.6-4.4l3-.7a5,5,0,0,1,.6,2.4,7.2,7.2,0,0,1,4.9-2.5,4.5,4.5,0,0,1,4.2,2.8c1.8-1.9,3.6-2.8,5.4-2.8s4.5,1.7,4.5,4.9v13.1h-3.2Z" transform="translate(-55.2 -33.7)"/><path class="cls-5" d="M288.3,225.1a6.7,6.7,0,0,1-4.6-1.8,17.4,17.4,0,0,1,.1,2v6.2l-3.2.7V211.5a18.5,18.5,0,0,0-.4-4.3l3.1-.5a9.1,9.1,0,0,1,.2,2.5,6.4,6.4,0,0,1,5-2.4c3.6,0,6.6,2.9,6.6,8.9s-2.4,9.4-6.9,9.4m-0.3-15.6a5.5,5.5,0,0,0-4.2,2.2v8.9a5.5,5.5,0,0,0,3.7,1.9c2.8,0,4.1-2.2,4.1-6.4s-0.9-6.6-3.7-6.6" transform="translate(-55.2 -33.7)"/><path class="cls-5" d="M311.5,225.5a4,4,0,0,1-2.3-2.5,6.1,6.1,0,0,1-5,2.3c-3.5,0-5.7-1.8-5.7-5.1s3.3-6.2,8.9-6.2h1.2v-1.2c0-2.1-.3-3.5-2.7-3.5a9.7,9.7,0,0,0-5.4,2l-1.5-2.3a13.8,13.8,0,0,1,7.4-2.3c2.6,0,4.4.9,5.1,2.8a8,8,0,0,1,.4,3.1c0,1.3-.1,4-0.1,6.5s0.1,3.4,1.4,4.2Zm-4-9.4c-2.4,0-3.9.5-4.6,1.3a3.4,3.4,0,0,0-.9,2.6c0,1.9,1,3,2.8,3a4.4,4.4,0,0,0,3.7-2.3v-4.5h-1" transform="translate(-55.2 -33.7)"/><path class="cls-5" d="M327.3,224.8V212.9c0-1.6-.1-2.1-0.6-2.7a2.2,2.2,0,0,0-1.8-.7,7.1,7.1,0,0,0-4.3,2.2v13h-3.2V211.7a9.6,9.6,0,0,0-.7-4.2l3-.8a5.6,5.6,0,0,1,.6,2.7,16,16,0,0,1,2.3-1.7,6.5,6.5,0,0,1,3.3-.9,4.4,4.4,0,0,1,4.1,2.5,5.5,5.5,0,0,1,.4,2.2v13.3h-3.2Z" transform="translate(-55.2 -33.7)"/><path class="cls-5" d="M343.4,225.3c-0.8,2.5-1.8,4.4-3,5.4a7.7,7.7,0,0,1-3.3,1.5l-1-2.1a5.3,5.3,0,0,0,3-2,9.9,9.9,0,0,0,1.4-3.4l-1.3.2a52.8,52.8,0,0,0-1.7-5.8l-3.9-11.5,3.3-.7,3.4,11c0.3,1.1.8,2.9,1,4.1h0.2c0.3-1.2.7-2.8,1.2-4.3l3.1-10.4h3.6Z" transform="translate(-55.2 -33.7)"/><path class="cls-4" d="M132.5,37.9H59.8V89.3a182.1,182.1,0,0,1,72.8-51.4" transform="translate(-55.2 -33.7)"/><path class="cls-4" d="M494.7,181.4h72.5V129.7a182,182,0,0,1-72.5,51.7" transform="translate(-55.2 -33.7)"/><polygon class="cls-3" points="144.8 111.3 144.8 71.1 131.6 97.3 122.5 97.3 109.2 71.1 109.2 111.3 95.7 111.3 95.7 42.3 109 42.3 127.1 79.6 145 42.3 158.3 42.3 158.3 111.3 144.8 111.3"/><path class="cls-3" d="M269.5,138a26.8,26.8,0,0,1-37.3,0c-7-7-6.8-15.6-6.8-27.5s-0.2-20.6,6.8-27.5a26.8,26.8,0,0,1,37.3,0c7,7,6.9,15.6,6.9,27.5s0.1,20.6-6.9,27.5m-10-46.9a11.2,11.2,0,0,0-8.6-3.7,11.4,11.4,0,0,0-8.7,3.7c-2.6,2.9-3.3,6.1-3.3,19.4s0.7,16.5,3.3,19.4a11.4,11.4,0,0,0,8.7,3.7,11.2,11.2,0,0,0,8.6-3.7c2.6-2.9,3.4-6.1,3.4-19.4s-0.8-16.5-3.4-19.4" transform="translate(-55.2 -33.7)"/><polygon class="cls-3" points="233 111.3 233 42.3 246.5 42.3 246.5 99.3 277.8 99.3 277.8 111.3 233 111.3"/><rect class="cls-3" x="286.8" y="42.3" width="13.5" height="69.06"/><polygon class="cls-3" points="355.3 111.3 328 68.9 328 111.3 314.5 111.3 314.5 42.3 326.5 42.3 353.9 84.6 353.9 42.3 367.3 42.3 367.3 111.3 355.3 111.3"/><path class="cls-3" d="M455.7,145.6c-10.5,0-18.4-2.2-25.2-9.1l8.7-8.7c4.4,4.4,10.3,5.8,16.7,5.8,8,0,12.2-3,12.2-8.5a7.7,7.7,0,0,0-2.1-5.8c-1.4-1.3-2.9-1.9-6.1-2.4l-8.3-1.2c-5.9-.9-10.3-2.7-13.4-5.7s-4.9-7.8-4.9-13.6c0-12.3,9.1-21,24.1-21,9.5,0,16.4,2.3,22.3,8.1L471,91.8c-4.4-4.2-9.6-4.8-14.2-4.8-7.2,0-10.7,4-10.7,8.7a6.7,6.7,0,0,0,2,4.9,11.9,11.9,0,0,0,6.4,2.7l8.1,1.2c6.3,0.9,10.3,2.6,13.2,5.3s5.3,8.5,5.3,14.6c0,13.4-11.2,21-25.6,21" transform="translate(-55.2 -33.7)"/></g></svg>